<mxfile modified="2020-11-15T13:46:05.003Z" host="app.diagrams.net" agent="5.0 (Windows NT 10.0; Win64; x64) AppleWebKit/537.36 (KHTML, like Gecko) Chrome/86.0.4240.198 Safari/537.36 Edg/86.0.622.69" etag="Sk_QagvJQL2ICuvxx4of" version="13.9.8" type="github" pages="7">
  <diagram id="Ht1M8jgEwFfnCIfOTk4-" name="Page-1">
    <mxGraphModel dx="1819" dy="1087" grid="1" gridSize="10" guides="1" tooltips="1" connect="1" arrows="1" fold="1" page="1" pageScale="1" pageWidth="1169" pageHeight="827" math="0" shadow="0">
      <root>
        <mxCell id="0" />
        <mxCell id="1" parent="0" />
        <mxCell id="-QjtrjUzRDEMRZ5MF8oH-14" value="Amazon SageMaker" style="whiteSpace=wrap;html=1;fillColor=none;fontSize=14;fontColor=#000000;dashed=0;fontStyle=0;align=center;verticalAlign=top;strokeColor=#D86613;gradientColor=none;spacingLeft=0;labelPosition=center;verticalLabelPosition=bottom;" parent="1" vertex="1">
          <mxGeometry x="872.5" y="174.5" width="232" height="160" as="geometry" />
        </mxCell>
        <mxCell id="SCVMTBWpLvtzJIhz15lM-34" value="" style="whiteSpace=wrap;html=1;fillColor=none;fontSize=14;fontColor=#000000;dashed=0;fontStyle=0;align=center;verticalAlign=top;strokeColor=#CCCCCC;gradientColor=none;spacingLeft=0;labelPosition=center;verticalLabelPosition=bottom;" parent="1" vertex="1">
          <mxGeometry x="882.5" y="257.5" width="210" height="70" as="geometry" />
        </mxCell>
        <mxCell id="-QjtrjUzRDEMRZ5MF8oH-1" value="" style="outlineConnect=0;fontColor=#232F3E;gradientColor=none;fillColor=#277116;strokeColor=none;dashed=0;verticalLabelPosition=bottom;verticalAlign=top;align=center;html=1;fontSize=12;fontStyle=0;aspect=fixed;pointerEvents=1;shape=mxgraph.aws4.door_lock;" parent="1" vertex="1">
          <mxGeometry x="64.5" y="260.5" width="78" height="78" as="geometry" />
        </mxCell>
        <mxCell id="-QjtrjUzRDEMRZ5MF8oH-2" value="" style="outlineConnect=0;fontColor=#232F3E;gradientColor=none;fillColor=#277116;strokeColor=none;dashed=0;verticalLabelPosition=bottom;verticalAlign=top;align=center;html=1;fontSize=12;fontStyle=0;aspect=fixed;pointerEvents=1;shape=mxgraph.aws4.car;" parent="1" vertex="1">
          <mxGeometry x="64.5" y="356" width="78" height="78" as="geometry" />
        </mxCell>
        <mxCell id="-QjtrjUzRDEMRZ5MF8oH-3" value="" style="outlineConnect=0;fontColor=#232F3E;gradientColor=none;fillColor=#277116;strokeColor=none;dashed=0;verticalLabelPosition=bottom;verticalAlign=top;align=center;html=1;fontSize=12;fontStyle=0;aspect=fixed;pointerEvents=1;shape=mxgraph.aws4.camera;" parent="1" vertex="1">
          <mxGeometry x="64.5" y="451.5" width="78" height="78" as="geometry" />
        </mxCell>
        <mxCell id="-QjtrjUzRDEMRZ5MF8oH-4" value="" style="outlineConnect=0;fontColor=#232F3E;gradientColor=none;fillColor=#277116;strokeColor=none;dashed=0;verticalLabelPosition=bottom;verticalAlign=top;align=center;html=1;fontSize=12;fontStyle=0;aspect=fixed;pointerEvents=1;shape=mxgraph.aws4.utility;" parent="1" vertex="1">
          <mxGeometry x="165.5" y="306.5" width="78" height="78" as="geometry" />
        </mxCell>
        <mxCell id="-QjtrjUzRDEMRZ5MF8oH-5" value="" style="outlineConnect=0;fontColor=#232F3E;gradientColor=none;fillColor=#277116;strokeColor=none;dashed=0;verticalLabelPosition=bottom;verticalAlign=top;align=center;html=1;fontSize=12;fontStyle=0;aspect=fixed;pointerEvents=1;shape=mxgraph.aws4.coffee_pot;" parent="1" vertex="1">
          <mxGeometry x="166.5" y="410.5" width="78" height="78" as="geometry" />
        </mxCell>
        <mxCell id="-QjtrjUzRDEMRZ5MF8oH-6" value="" style="outlineConnect=0;fontColor=#232F3E;gradientColor=none;fillColor=#277116;strokeColor=none;dashed=0;verticalLabelPosition=bottom;verticalAlign=top;align=center;html=1;fontSize=12;fontStyle=0;aspect=fixed;pointerEvents=1;shape=mxgraph.aws4.lightbulb;" parent="1" vertex="1">
          <mxGeometry x="263.5" y="260.5" width="78" height="78" as="geometry" />
        </mxCell>
        <mxCell id="-QjtrjUzRDEMRZ5MF8oH-7" value="" style="outlineConnect=0;fontColor=#232F3E;gradientColor=none;fillColor=#277116;strokeColor=none;dashed=0;verticalLabelPosition=bottom;verticalAlign=top;align=center;html=1;fontSize=12;fontStyle=0;aspect=fixed;pointerEvents=1;shape=mxgraph.aws4.house;" parent="1" vertex="1">
          <mxGeometry x="261.5" y="356" width="78" height="78" as="geometry" />
        </mxCell>
        <mxCell id="-QjtrjUzRDEMRZ5MF8oH-8" value="" style="outlineConnect=0;fontColor=#232F3E;gradientColor=none;fillColor=#277116;strokeColor=none;dashed=0;verticalLabelPosition=bottom;verticalAlign=top;align=center;html=1;fontSize=12;fontStyle=0;aspect=fixed;pointerEvents=1;shape=mxgraph.aws4.thermostat;" parent="1" vertex="1">
          <mxGeometry x="261.5" y="451.5" width="78" height="78" as="geometry" />
        </mxCell>
        <mxCell id="-QjtrjUzRDEMRZ5MF8oH-9" value="1" style="rounded=1;whiteSpace=wrap;html=1;fillColor=#007CBD;strokeColor=none;fontColor=#FFFFFF;fontStyle=1;fontSize=22;" parent="1" vertex="1">
          <mxGeometry x="223.5" y="211.5" width="40" height="38" as="geometry" />
        </mxCell>
        <mxCell id="-QjtrjUzRDEMRZ5MF8oH-10" value="ML Model Executable" style="outlineConnect=0;fontColor=#232F3E;gradientColor=none;fillColor=#116D5B;strokeColor=none;dashed=0;verticalLabelPosition=bottom;verticalAlign=top;align=center;html=1;fontSize=12;fontStyle=0;aspect=fixed;pointerEvents=1;shape=mxgraph.aws4.sagemaker_model;" parent="1" vertex="1">
          <mxGeometry x="473.5" y="244.5" width="78" height="78" as="geometry" />
        </mxCell>
        <mxCell id="-QjtrjUzRDEMRZ5MF8oH-11" value="AWS Lambda Function" style="outlineConnect=0;fontColor=#232F3E;gradientColor=none;fillColor=#277116;strokeColor=none;dashed=0;verticalLabelPosition=bottom;verticalAlign=top;align=center;html=1;fontSize=12;fontStyle=0;aspect=fixed;pointerEvents=1;shape=mxgraph.aws4.lambda_function;" parent="1" vertex="1">
          <mxGeometry x="473.5" y="349.5" width="78" height="78" as="geometry" />
        </mxCell>
        <mxCell id="-QjtrjUzRDEMRZ5MF8oH-12" value="AWS IoT Greengrass Core" style="outlineConnect=0;fontColor=#232F3E;gradientColor=#60A337;gradientDirection=north;fillColor=#277116;strokeColor=#ffffff;dashed=0;verticalLabelPosition=bottom;verticalAlign=top;align=center;html=1;fontSize=12;fontStyle=0;aspect=fixed;shape=mxgraph.aws4.resourceIcon;resIcon=mxgraph.aws4.greengrass;" parent="1" vertex="1">
          <mxGeometry x="473.5" y="457.5" width="78" height="78" as="geometry" />
        </mxCell>
        <mxCell id="-QjtrjUzRDEMRZ5MF8oH-16" value="AWS IoT Core" style="outlineConnect=0;fontColor=#232F3E;gradientColor=#60A337;gradientDirection=north;fillColor=#277116;strokeColor=#ffffff;dashed=0;verticalLabelPosition=bottom;verticalAlign=top;align=center;html=1;fontSize=12;fontStyle=0;aspect=fixed;shape=mxgraph.aws4.resourceIcon;resIcon=mxgraph.aws4.internet_of_things;" parent="1" vertex="1">
          <mxGeometry x="745.5" y="451.5" width="78" height="78" as="geometry" />
        </mxCell>
        <mxCell id="-QjtrjUzRDEMRZ5MF8oH-17" value="AWS IoT Analytics" style="outlineConnect=0;fontColor=#232F3E;gradientColor=#60A337;gradientDirection=north;fillColor=#277116;strokeColor=#ffffff;dashed=0;verticalLabelPosition=bottom;verticalAlign=top;align=center;html=1;fontSize=12;fontStyle=0;aspect=fixed;shape=mxgraph.aws4.resourceIcon;resIcon=mxgraph.aws4.iot_analytics;" parent="1" vertex="1">
          <mxGeometry x="949.5" y="451.5" width="78" height="78" as="geometry" />
        </mxCell>
        <mxCell id="-QjtrjUzRDEMRZ5MF8oH-18" value="ML Model Executable" style="outlineConnect=0;fontColor=#232F3E;gradientColor=none;fillColor=#116D5B;strokeColor=none;dashed=0;verticalLabelPosition=bottom;verticalAlign=top;align=center;html=1;fontSize=12;fontStyle=0;aspect=fixed;pointerEvents=1;shape=mxgraph.aws4.sagemaker_model;" parent="1" vertex="1">
          <mxGeometry x="136.5" y="691.5" width="78" height="78" as="geometry" />
        </mxCell>
        <mxCell id="-QjtrjUzRDEMRZ5MF8oH-19" value="AWS IoT Greengrass Core" style="outlineConnect=0;fontColor=#232F3E;gradientColor=#60A337;gradientDirection=north;fillColor=#277116;strokeColor=#ffffff;dashed=0;verticalLabelPosition=bottom;verticalAlign=top;align=center;html=1;fontSize=12;fontStyle=0;aspect=fixed;shape=mxgraph.aws4.resourceIcon;resIcon=mxgraph.aws4.iot_core;" parent="1" vertex="1">
          <mxGeometry x="137.5" y="796" width="78" height="78" as="geometry" />
        </mxCell>
        <mxCell id="-QjtrjUzRDEMRZ5MF8oH-20" value="Video Camera" style="outlineConnect=0;fontColor=#232F3E;gradientColor=none;fillColor=#277116;strokeColor=none;dashed=0;verticalLabelPosition=bottom;verticalAlign=top;align=center;html=1;fontSize=12;fontStyle=0;aspect=fixed;pointerEvents=1;shape=mxgraph.aws4.camera;" parent="1" vertex="1">
          <mxGeometry x="137.5" y="903.5" width="78" height="78" as="geometry" />
        </mxCell>
        <mxCell id="-QjtrjUzRDEMRZ5MF8oH-21" value="AWS IoT Core" style="outlineConnect=0;fontColor=#232F3E;gradientColor=#60A337;gradientDirection=north;fillColor=#277116;strokeColor=#ffffff;dashed=0;verticalLabelPosition=bottom;verticalAlign=top;align=center;html=1;fontSize=12;fontStyle=0;aspect=fixed;shape=mxgraph.aws4.resourceIcon;resIcon=mxgraph.aws4.internet_of_things;" parent="1" vertex="1">
          <mxGeometry x="352.5" y="711.5" width="78" height="78" as="geometry" />
        </mxCell>
        <mxCell id="-QjtrjUzRDEMRZ5MF8oH-22" value="AWS IoT Analytics" style="outlineConnect=0;fontColor=#232F3E;gradientColor=#60A337;gradientDirection=north;fillColor=#277116;strokeColor=#ffffff;dashed=0;verticalLabelPosition=bottom;verticalAlign=top;align=center;html=1;fontSize=12;fontStyle=0;aspect=fixed;shape=mxgraph.aws4.resourceIcon;resIcon=mxgraph.aws4.iot_analytics;" parent="1" vertex="1">
          <mxGeometry x="532.5" y="708.5" width="78" height="78" as="geometry" />
        </mxCell>
        <mxCell id="-QjtrjUzRDEMRZ5MF8oH-23" value="AWS IoT Events" style="outlineConnect=0;fontColor=#232F3E;gradientColor=#60A337;gradientDirection=north;fillColor=#277116;strokeColor=#ffffff;dashed=0;verticalLabelPosition=bottom;verticalAlign=top;align=center;html=1;fontSize=12;fontStyle=0;aspect=fixed;shape=mxgraph.aws4.resourceIcon;resIcon=mxgraph.aws4.iot_events;" parent="1" vertex="1">
          <mxGeometry x="721.5" y="708.5" width="78" height="78" as="geometry" />
        </mxCell>
        <mxCell id="-QjtrjUzRDEMRZ5MF8oH-24" value="Amazon SNS" style="outlineConnect=0;fontColor=#232F3E;gradientColor=#F34482;gradientDirection=north;fillColor=#BC1356;strokeColor=#ffffff;dashed=0;verticalLabelPosition=bottom;verticalAlign=top;align=center;html=1;fontSize=12;fontStyle=0;aspect=fixed;shape=mxgraph.aws4.resourceIcon;resIcon=mxgraph.aws4.sns;" parent="1" vertex="1">
          <mxGeometry x="902.5" y="708.5" width="78" height="78" as="geometry" />
        </mxCell>
        <mxCell id="-QjtrjUzRDEMRZ5MF8oH-25" value="Amazon Kinesis&lt;br&gt;Video Streams&lt;br&gt;" style="outlineConnect=0;fontColor=#232F3E;gradientColor=#945DF2;gradientDirection=north;fillColor=#5A30B5;strokeColor=#ffffff;dashed=0;verticalLabelPosition=bottom;verticalAlign=top;align=center;html=1;fontSize=12;fontStyle=0;aspect=fixed;shape=mxgraph.aws4.resourceIcon;resIcon=mxgraph.aws4.kinesis_video_streams;" parent="1" vertex="1">
          <mxGeometry x="484.5" y="874.5" width="78" height="78" as="geometry" />
        </mxCell>
        <mxCell id="-QjtrjUzRDEMRZ5MF8oH-26" value="Mobile Application" style="outlineConnect=0;fontColor=#232F3E;gradientColor=#F54749;gradientDirection=north;fillColor=#C7131F;strokeColor=#ffffff;dashed=0;verticalLabelPosition=bottom;verticalAlign=top;align=center;html=1;fontSize=12;fontStyle=0;aspect=fixed;shape=mxgraph.aws4.resourceIcon;resIcon=mxgraph.aws4.mobile;" parent="1" vertex="1">
          <mxGeometry x="785.5" y="873.5" width="78" height="78" as="geometry" />
        </mxCell>
        <mxCell id="-QjtrjUzRDEMRZ5MF8oH-27" value="2" style="rounded=1;whiteSpace=wrap;html=1;fillColor=#007CBD;strokeColor=none;fontColor=#FFFFFF;fontStyle=1;fontSize=22;" parent="1" vertex="1">
          <mxGeometry x="483.5" y="164.5" width="40" height="38" as="geometry" />
        </mxCell>
        <mxCell id="-QjtrjUzRDEMRZ5MF8oH-28" value="3" style="rounded=1;whiteSpace=wrap;html=1;fillColor=#007CBD;strokeColor=none;fontColor=#FFFFFF;fontStyle=1;fontSize=22;" parent="1" vertex="1">
          <mxGeometry x="823.5" y="175.5" width="40" height="38" as="geometry" />
        </mxCell>
        <mxCell id="-QjtrjUzRDEMRZ5MF8oH-29" value="4" style="rounded=1;whiteSpace=wrap;html=1;fillColor=#007CBD;strokeColor=none;fontColor=#FFFFFF;fontStyle=1;fontSize=22;" parent="1" vertex="1">
          <mxGeometry x="633.5" y="399.5" width="40" height="38" as="geometry" />
        </mxCell>
        <mxCell id="-QjtrjUzRDEMRZ5MF8oH-30" value="5" style="rounded=1;whiteSpace=wrap;html=1;fillColor=#007CBD;strokeColor=none;fontColor=#FFFFFF;fontStyle=1;fontSize=22;" parent="1" vertex="1">
          <mxGeometry x="878.5" y="399.5" width="40" height="38" as="geometry" />
        </mxCell>
        <mxCell id="-QjtrjUzRDEMRZ5MF8oH-31" value="6" style="rounded=1;whiteSpace=wrap;html=1;fillColor=#007CBD;strokeColor=none;fontColor=#FFFFFF;fontStyle=1;fontSize=22;" parent="1" vertex="1">
          <mxGeometry x="136.5" y="608.5" width="40" height="38" as="geometry" />
        </mxCell>
        <mxCell id="-QjtrjUzRDEMRZ5MF8oH-32" value="7" style="rounded=1;whiteSpace=wrap;html=1;fillColor=#007CBD;strokeColor=none;fontColor=#FFFFFF;fontStyle=1;fontSize=22;" parent="1" vertex="1">
          <mxGeometry x="462.5" y="666.5" width="40" height="38" as="geometry" />
        </mxCell>
        <mxCell id="-QjtrjUzRDEMRZ5MF8oH-33" value="8" style="rounded=1;whiteSpace=wrap;html=1;fillColor=#007CBD;strokeColor=none;fontColor=#FFFFFF;fontStyle=1;fontSize=22;" parent="1" vertex="1">
          <mxGeometry x="832.5" y="666.5" width="40" height="38" as="geometry" />
        </mxCell>
        <mxCell id="-QjtrjUzRDEMRZ5MF8oH-34" value="9" style="rounded=1;whiteSpace=wrap;html=1;fillColor=#007CBD;strokeColor=none;fontColor=#FFFFFF;fontStyle=1;fontSize=22;" parent="1" vertex="1">
          <mxGeometry x="352.5" y="854.5" width="40" height="38" as="geometry" />
        </mxCell>
        <mxCell id="-QjtrjUzRDEMRZ5MF8oH-35" value="10" style="rounded=1;whiteSpace=wrap;html=1;fillColor=#007CBD;strokeColor=none;fontColor=#FFFFFF;fontStyle=1;fontSize=22;" parent="1" vertex="1">
          <mxGeometry x="652.5" y="854.5" width="40" height="38" as="geometry" />
        </mxCell>
        <mxCell id="-QjtrjUzRDEMRZ5MF8oH-47" value="Title text" style="text;html=1;resizable=0;points=[];autosize=1;align=left;verticalAlign=top;spacingTop=-4;fontSize=30;fontStyle=1" parent="1" vertex="1">
          <mxGeometry x="56.5" y="64.5" width="130" height="40" as="geometry" />
        </mxCell>
        <mxCell id="-QjtrjUzRDEMRZ5MF8oH-48" value="Subtitle text&lt;br style=&quot;font-size: 16px&quot;&gt;" style="text;html=1;resizable=0;points=[];autosize=1;align=left;verticalAlign=top;spacingTop=-4;fontSize=16;" parent="1" vertex="1">
          <mxGeometry x="56.5" y="114.5" width="100" height="20" as="geometry" />
        </mxCell>
        <mxCell id="-QjtrjUzRDEMRZ5MF8oH-49" value="Label" style="text;html=1;resizable=0;points=[];autosize=1;align=left;verticalAlign=top;spacingTop=-4;fontSize=16;fontStyle=1" parent="1" vertex="1">
          <mxGeometry x="84.5" y="164.5" width="50" height="20" as="geometry" />
        </mxCell>
        <mxCell id="SCVMTBWpLvtzJIhz15lM-1" value="" style="line;strokeWidth=2;html=1;fontSize=14;" parent="1" vertex="1">
          <mxGeometry x="52.5" y="139.5" width="1060" height="10" as="geometry" />
        </mxCell>
        <mxCell id="SCVMTBWpLvtzJIhz15lM-2" value="&lt;span&gt;Label&lt;/span&gt;" style="text;html=1;resizable=0;points=[];autosize=1;align=left;verticalAlign=top;spacingTop=-4;fontSize=14;fontStyle=1" parent="1" vertex="1">
          <mxGeometry x="442.5" y="216.5" width="50" height="20" as="geometry" />
        </mxCell>
        <mxCell id="SCVMTBWpLvtzJIhz15lM-3" value="" style="edgeStyle=orthogonalEdgeStyle;html=1;endArrow=open;elbow=vertical;startArrow=none;endFill=0;strokeColor=#545B64;rounded=0;fontSize=14;" parent="1" edge="1">
          <mxGeometry width="100" relative="1" as="geometry">
            <mxPoint x="354.5" y="394.5" as="sourcePoint" />
            <mxPoint x="404.5" y="394.5" as="targetPoint" />
          </mxGeometry>
        </mxCell>
        <mxCell id="SCVMTBWpLvtzJIhz15lM-5" value="" style="shape=curlyBracket;whiteSpace=wrap;html=1;rounded=1;fontSize=14;" parent="1" vertex="1">
          <mxGeometry x="415.5" y="248.5" width="20" height="290" as="geometry" />
        </mxCell>
        <mxCell id="SCVMTBWpLvtzJIhz15lM-17" value="&lt;span&gt;Label&lt;/span&gt;" style="edgeStyle=orthogonalEdgeStyle;html=1;endArrow=open;elbow=vertical;startArrow=none;endFill=0;strokeColor=#545B64;rounded=0;fontSize=14;strokeWidth=2;" parent="1" edge="1">
          <mxGeometry x="-0.037" y="20" width="100" relative="1" as="geometry">
            <mxPoint x="584.5" y="254.5" as="sourcePoint" />
            <mxPoint x="854.5" y="254.5" as="targetPoint" />
            <mxPoint as="offset" />
          </mxGeometry>
        </mxCell>
        <mxCell id="SCVMTBWpLvtzJIhz15lM-18" value="&lt;span&gt;Label&lt;/span&gt;" style="edgeStyle=orthogonalEdgeStyle;html=1;endArrow=none;elbow=vertical;startArrow=open;endFill=0;strokeColor=#545B64;rounded=0;fontSize=14;strokeWidth=2;startFill=0;" parent="1" edge="1">
          <mxGeometry x="-0.037" y="20" width="100" relative="1" as="geometry">
            <mxPoint x="582.5" y="318" as="sourcePoint" />
            <mxPoint x="852.5" y="318" as="targetPoint" />
            <mxPoint as="offset" />
          </mxGeometry>
        </mxCell>
        <mxCell id="SCVMTBWpLvtzJIhz15lM-19" value="&lt;span&gt;Label&lt;/span&gt;" style="edgeStyle=orthogonalEdgeStyle;html=1;endArrow=open;elbow=vertical;startArrow=none;endFill=0;strokeColor=#545B64;rounded=0;fontSize=14;strokeWidth=2;" parent="1" edge="1">
          <mxGeometry x="-0.037" y="20" width="100" relative="1" as="geometry">
            <mxPoint x="594.5000000000002" y="484.5" as="sourcePoint" />
            <mxPoint x="714.5" y="484.5" as="targetPoint" />
            <mxPoint as="offset" />
          </mxGeometry>
        </mxCell>
        <mxCell id="SCVMTBWpLvtzJIhz15lM-20" value="&lt;span&gt;Label&lt;/span&gt;" style="edgeStyle=orthogonalEdgeStyle;html=1;endArrow=open;elbow=vertical;startArrow=none;endFill=0;strokeColor=#545B64;rounded=0;fontSize=14;strokeWidth=2;" parent="1" edge="1">
          <mxGeometry x="-0.037" y="20" width="100" relative="1" as="geometry">
            <mxPoint x="838.5000000000002" y="487.5" as="sourcePoint" />
            <mxPoint x="924.5" y="487.5" as="targetPoint" />
            <mxPoint as="offset" />
          </mxGeometry>
        </mxCell>
        <mxCell id="SCVMTBWpLvtzJIhz15lM-21" value="Label" style="text;html=1;resizable=0;points=[];autosize=1;align=left;verticalAlign=top;spacingTop=-4;fontSize=16;fontStyle=1" parent="1" vertex="1">
          <mxGeometry x="66.5" y="576.5" width="50" height="20" as="geometry" />
        </mxCell>
        <mxCell id="SCVMTBWpLvtzJIhz15lM-22" value="&lt;span&gt;Label&lt;/span&gt;" style="text;html=1;resizable=0;points=[];autosize=1;align=left;verticalAlign=top;spacingTop=-4;fontSize=14;fontStyle=1" parent="1" vertex="1">
          <mxGeometry x="136.5" y="656.5" width="50" height="20" as="geometry" />
        </mxCell>
        <mxCell id="SCVMTBWpLvtzJIhz15lM-23" value="" style="shape=curlyBracket;whiteSpace=wrap;html=1;rounded=1;fontSize=14;" parent="1" vertex="1">
          <mxGeometry x="76.5" y="691.5" width="20" height="290" as="geometry" />
        </mxCell>
        <mxCell id="SCVMTBWpLvtzJIhz15lM-24" value="Video Events" style="edgeStyle=orthogonalEdgeStyle;html=1;endArrow=open;elbow=vertical;startArrow=none;endFill=0;strokeColor=#545B64;rounded=0;fontSize=14;strokeWidth=2;" parent="1" edge="1">
          <mxGeometry x="-0.037" y="20" width="100" relative="1" as="geometry">
            <mxPoint x="261.5" y="753.5" as="sourcePoint" />
            <mxPoint x="342.5" y="753.5" as="targetPoint" />
            <mxPoint as="offset" />
          </mxGeometry>
        </mxCell>
        <mxCell id="SCVMTBWpLvtzJIhz15lM-25" value="" style="edgeStyle=orthogonalEdgeStyle;html=1;endArrow=open;elbow=vertical;startArrow=none;endFill=0;strokeColor=#545B64;rounded=0;fontSize=14;strokeWidth=2;" parent="1" edge="1">
          <mxGeometry x="-0.037" y="20" width="100" relative="1" as="geometry">
            <mxPoint x="443" y="750" as="sourcePoint" />
            <mxPoint x="524" y="750" as="targetPoint" />
            <mxPoint as="offset" />
          </mxGeometry>
        </mxCell>
        <mxCell id="SCVMTBWpLvtzJIhz15lM-26" value="" style="edgeStyle=orthogonalEdgeStyle;html=1;endArrow=open;elbow=vertical;startArrow=none;endFill=0;strokeColor=#545B64;rounded=0;fontSize=14;strokeWidth=2;" parent="1" edge="1">
          <mxGeometry x="-0.037" y="20" width="100" relative="1" as="geometry">
            <mxPoint x="622.5" y="750" as="sourcePoint" />
            <mxPoint x="703.5" y="750" as="targetPoint" />
            <mxPoint as="offset" />
          </mxGeometry>
        </mxCell>
        <mxCell id="SCVMTBWpLvtzJIhz15lM-27" value="" style="edgeStyle=orthogonalEdgeStyle;html=1;endArrow=open;elbow=vertical;startArrow=none;endFill=0;strokeColor=#545B64;rounded=0;fontSize=14;strokeWidth=2;" parent="1" edge="1">
          <mxGeometry x="-0.037" y="20" width="100" relative="1" as="geometry">
            <mxPoint x="811.5" y="747.5" as="sourcePoint" />
            <mxPoint x="892.5" y="747.5" as="targetPoint" />
            <mxPoint as="offset" />
          </mxGeometry>
        </mxCell>
        <mxCell id="SCVMTBWpLvtzJIhz15lM-28" value="Video Stream" style="edgeStyle=orthogonalEdgeStyle;html=1;endArrow=open;elbow=vertical;startArrow=none;endFill=0;strokeColor=#545B64;rounded=0;fontSize=14;strokeWidth=2;" parent="1" edge="1">
          <mxGeometry x="0.0038" y="-11" width="100" relative="1" as="geometry">
            <mxPoint x="262" y="913" as="sourcePoint" />
            <mxPoint x="472.5" y="913.5" as="targetPoint" />
            <mxPoint as="offset" />
            <Array as="points">
              <mxPoint x="367.5" y="913.5" />
            </Array>
          </mxGeometry>
        </mxCell>
        <mxCell id="SCVMTBWpLvtzJIhz15lM-29" value="" style="edgeStyle=orthogonalEdgeStyle;html=1;endArrow=open;elbow=vertical;startArrow=none;endFill=0;strokeColor=#545B64;rounded=0;fontSize=14;strokeWidth=2;" parent="1" edge="1">
          <mxGeometry x="0.0038" y="-11" width="100" relative="1" as="geometry">
            <mxPoint x="575.0714285714287" y="913.2142857142858" as="sourcePoint" />
            <mxPoint x="762.5" y="913.5" as="targetPoint" />
            <mxPoint as="offset" />
            <Array as="points">
              <mxPoint x="680.5" y="913.5" />
            </Array>
          </mxGeometry>
        </mxCell>
        <mxCell id="SCVMTBWpLvtzJIhz15lM-30" value="Build" style="outlineConnect=0;gradientColor=none;fontColor=#545B64;strokeColor=none;fillColor=#879196;dashed=0;verticalLabelPosition=bottom;verticalAlign=top;align=center;html=1;fontSize=12;fontStyle=0;aspect=fixed;shape=mxgraph.aws4.illustration_devices;pointerEvents=1" parent="1" vertex="1">
          <mxGeometry x="962.5" y="179.5" width="52" height="38" as="geometry" />
        </mxCell>
        <mxCell id="SCVMTBWpLvtzJIhz15lM-31" value="Train" style="outlineConnect=0;gradientColor=none;fontColor=#545B64;strokeColor=none;fillColor=#879196;dashed=0;verticalLabelPosition=bottom;verticalAlign=top;align=center;html=1;fontSize=12;fontStyle=0;aspect=fixed;shape=mxgraph.aws4.illustration_devices;pointerEvents=1" parent="1" vertex="1">
          <mxGeometry x="892.5" y="267.5" width="52" height="38" as="geometry" />
        </mxCell>
        <mxCell id="SCVMTBWpLvtzJIhz15lM-32" value="Optimize" style="outlineConnect=0;gradientColor=none;fontColor=#545B64;strokeColor=none;fillColor=#879196;dashed=0;verticalLabelPosition=bottom;verticalAlign=top;align=center;html=1;fontSize=12;fontStyle=0;aspect=fixed;shape=mxgraph.aws4.illustration_devices;pointerEvents=1" parent="1" vertex="1">
          <mxGeometry x="1032.5" y="267.5" width="52" height="38" as="geometry" />
        </mxCell>
        <mxCell id="SCVMTBWpLvtzJIhz15lM-33" value="" style="edgeStyle=orthogonalEdgeStyle;html=1;endArrow=open;elbow=vertical;startArrow=none;endFill=0;strokeColor=#545B64;rounded=0;fontSize=14;" parent="1" edge="1">
          <mxGeometry width="100" relative="1" as="geometry">
            <mxPoint x="958.5" y="293.5" as="sourcePoint" />
            <mxPoint x="1018.5" y="293.5" as="targetPoint" />
          </mxGeometry>
        </mxCell>
        <mxCell id="SCVMTBWpLvtzJIhz15lM-35" value="" style="edgeStyle=orthogonalEdgeStyle;html=1;endArrow=open;elbow=vertical;startArrow=none;endFill=0;strokeColor=#545B64;rounded=0;fontSize=14;" parent="1" edge="1">
          <mxGeometry width="100" relative="1" as="geometry">
            <mxPoint x="992.5" y="236.46774193548387" as="sourcePoint" />
            <mxPoint x="992.5" y="256.4677419354839" as="targetPoint" />
          </mxGeometry>
        </mxCell>
        <mxCell id="7OVz4w7n9kzEPWy-4BBC-3" value="" style="rounded=0;whiteSpace=wrap;html=1;fillColor=#EAEDED;fontSize=22;fontColor=#FFFFFF;strokeColor=none;labelBackgroundColor=none;" parent="1" vertex="1">
          <mxGeometry x="1151" y="51" width="539" height="1220" as="geometry" />
        </mxCell>
        <mxCell id="7OVz4w7n9kzEPWy-4BBC-4" value="1" style="rounded=1;whiteSpace=wrap;html=1;fillColor=#007CBD;strokeColor=none;fontColor=#FFFFFF;fontStyle=1;fontSize=22;labelBackgroundColor=none;" parent="1" vertex="1">
          <mxGeometry x="1169" y="63" width="40" height="38" as="geometry" />
        </mxCell>
        <mxCell id="7OVz4w7n9kzEPWy-4BBC-5" value="2" style="rounded=1;whiteSpace=wrap;html=1;fillColor=#007CBD;strokeColor=none;fontColor=#FFFFFF;fontStyle=1;fontSize=22;labelBackgroundColor=none;" parent="1" vertex="1">
          <mxGeometry x="1167.5" y="185" width="40" height="38" as="geometry" />
        </mxCell>
        <mxCell id="7OVz4w7n9kzEPWy-4BBC-6" value="3" style="rounded=1;whiteSpace=wrap;html=1;fillColor=#007CBD;strokeColor=none;fontColor=#FFFFFF;fontStyle=1;fontSize=22;labelBackgroundColor=none;" parent="1" vertex="1">
          <mxGeometry x="1167.5" y="305" width="40" height="38" as="geometry" />
        </mxCell>
        <mxCell id="7OVz4w7n9kzEPWy-4BBC-7" value="4" style="rounded=1;whiteSpace=wrap;html=1;fillColor=#007CBD;strokeColor=none;fontColor=#FFFFFF;fontStyle=1;fontSize=22;labelBackgroundColor=none;" parent="1" vertex="1">
          <mxGeometry x="1167.5" y="419" width="40" height="38" as="geometry" />
        </mxCell>
        <mxCell id="7OVz4w7n9kzEPWy-4BBC-8" value="5" style="rounded=1;whiteSpace=wrap;html=1;fillColor=#007CBD;strokeColor=none;fontColor=#FFFFFF;fontStyle=1;fontSize=22;labelBackgroundColor=none;" parent="1" vertex="1">
          <mxGeometry x="1169" y="536" width="40" height="38" as="geometry" />
        </mxCell>
        <mxCell id="7OVz4w7n9kzEPWy-4BBC-9" value="6" style="rounded=1;whiteSpace=wrap;html=1;fillColor=#007CBD;strokeColor=none;fontColor=#FFFFFF;fontStyle=1;fontSize=22;labelBackgroundColor=none;" parent="1" vertex="1">
          <mxGeometry x="1170" y="651" width="40" height="38" as="geometry" />
        </mxCell>
        <mxCell id="7OVz4w7n9kzEPWy-4BBC-10" value="7" style="rounded=1;whiteSpace=wrap;html=1;fillColor=#007CBD;strokeColor=none;fontColor=#FFFFFF;fontStyle=1;fontSize=22;labelBackgroundColor=none;" parent="1" vertex="1">
          <mxGeometry x="1169.5" y="767" width="40" height="38" as="geometry" />
        </mxCell>
        <mxCell id="7OVz4w7n9kzEPWy-4BBC-11" value="8" style="rounded=1;whiteSpace=wrap;html=1;fillColor=#007CBD;strokeColor=none;fontColor=#FFFFFF;fontStyle=1;fontSize=22;labelBackgroundColor=none;" parent="1" vertex="1">
          <mxGeometry x="1170" y="885" width="40" height="38" as="geometry" />
        </mxCell>
        <mxCell id="7OVz4w7n9kzEPWy-4BBC-12" value="9" style="rounded=1;whiteSpace=wrap;html=1;fillColor=#007CBD;strokeColor=none;fontColor=#FFFFFF;fontStyle=1;fontSize=22;labelBackgroundColor=none;" parent="1" vertex="1">
          <mxGeometry x="1168" y="1005" width="40" height="38" as="geometry" />
        </mxCell>
        <mxCell id="7OVz4w7n9kzEPWy-4BBC-13" value="&lt;span&gt;Lorem ipsum dolor sit amet, consectetur adipiscing elit, sed do eiusmod tempor incididunt ut labore et dolore magna aliqua. Ut enim ad minim veniam, quis nostrud exercitation ullamco laboris nisi ut aliquip ex ea commodo consequat. Duis aute irure dolor in reprehenderit in voluptate velit esse cillum dolore eu fugiat nulla pariatur. Excepteur sint occaecat cupidatat non proident, sunt in culpa qui officia deserunt mollit anim id est laborum.&lt;/span&gt;&lt;br&gt;" style="text;html=1;align=left;verticalAlign=top;spacingTop=-4;fontSize=14;labelBackgroundColor=none;whiteSpace=wrap;" parent="1" vertex="1">
          <mxGeometry x="1220.5" y="62.5" width="449" height="118" as="geometry" />
        </mxCell>
        <mxCell id="7OVz4w7n9kzEPWy-4BBC-14" value="&lt;span&gt;Lorem ipsum dolor sit amet, consectetur adipiscing elit, sed do eiusmod tempor incididunt ut labore et dolore magna aliqua. Ut enim ad minim veniam, quis nostrud exercitation ullamco laboris nisi ut aliquip ex ea commodo consequat. Duis aute irure dolor in reprehenderit in voluptate velit esse cillum dolore eu fugiat nulla pariatur. Excepteur sint occaecat cupidatat non proident, sunt in culpa qui officia deserunt mollit anim id est laborum.&lt;/span&gt;&lt;br&gt;" style="text;html=1;align=left;verticalAlign=top;spacingTop=-4;fontSize=14;labelBackgroundColor=none;whiteSpace=wrap;" parent="1" vertex="1">
          <mxGeometry x="1219.5" y="185.5" width="450" height="115" as="geometry" />
        </mxCell>
        <mxCell id="7OVz4w7n9kzEPWy-4BBC-15" value="&lt;span&gt;Lorem ipsum dolor sit amet, consectetur adipiscing elit, sed do eiusmod tempor incididunt ut labore et dolore magna aliqua. Ut enim ad minim veniam, quis nostrud exercitation ullamco laboris nisi ut aliquip ex ea commodo consequat. Duis aute irure dolor in reprehenderit in voluptate velit esse cillum dolore eu fugiat nulla pariatur. Excepteur sint occaecat cupidatat non proident, sunt in culpa qui officia deserunt mollit anim id est laborum.&lt;/span&gt;&lt;br&gt;" style="text;html=1;align=left;verticalAlign=top;spacingTop=-4;fontSize=14;labelBackgroundColor=none;whiteSpace=wrap;" parent="1" vertex="1">
          <mxGeometry x="1219.5" y="303.5" width="450" height="117" as="geometry" />
        </mxCell>
        <mxCell id="7OVz4w7n9kzEPWy-4BBC-16" value="&lt;span&gt;Lorem ipsum dolor sit amet, consectetur adipiscing elit, sed do eiusmod tempor incididunt ut labore et dolore magna aliqua. Ut enim ad minim veniam, quis nostrud exercitation ullamco laboris nisi ut aliquip ex ea commodo consequat. Duis aute irure dolor in reprehenderit in voluptate velit esse cillum dolore eu fugiat nulla pariatur. Excepteur sint occaecat cupidatat non proident, sunt in culpa qui officia deserunt mollit anim id est laborum.&lt;/span&gt;&lt;br&gt;" style="text;html=1;align=left;verticalAlign=top;spacingTop=-4;fontSize=14;labelBackgroundColor=none;whiteSpace=wrap;" parent="1" vertex="1">
          <mxGeometry x="1219.5" y="419.5" width="450" height="121" as="geometry" />
        </mxCell>
        <mxCell id="7OVz4w7n9kzEPWy-4BBC-17" value="&lt;span&gt;Lorem ipsum dolor sit amet, consectetur adipiscing elit, sed do eiusmod tempor incididunt ut labore et dolore magna aliqua. Ut enim ad minim veniam, quis nostrud exercitation ullamco laboris nisi ut aliquip ex ea commodo consequat. Duis aute irure dolor in reprehenderit in voluptate velit esse cillum dolore eu fugiat nulla pariatur. Excepteur sint occaecat cupidatat non proident, sunt in culpa qui officia deserunt mollit anim id est laborum.&lt;/span&gt;&lt;br&gt;" style="text;html=1;align=left;verticalAlign=top;spacingTop=-4;fontSize=14;labelBackgroundColor=none;whiteSpace=wrap;" parent="1" vertex="1">
          <mxGeometry x="1220.5" y="536.5" width="449" height="114" as="geometry" />
        </mxCell>
        <mxCell id="7OVz4w7n9kzEPWy-4BBC-18" value="&lt;span&gt;Lorem ipsum dolor sit amet, consectetur adipiscing elit, sed do eiusmod tempor incididunt ut labore et dolore magna aliqua. Ut enim ad minim veniam, quis nostrud exercitation ullamco laboris nisi ut aliquip ex ea commodo consequat. Duis aute irure dolor in reprehenderit in voluptate velit esse cillum dolore eu fugiat nulla pariatur. Excepteur sint occaecat cupidatat non proident, sunt in culpa qui officia deserunt mollit anim id est laborum.&lt;/span&gt;&lt;br&gt;" style="text;html=1;align=left;verticalAlign=top;spacingTop=-4;fontSize=14;labelBackgroundColor=none;whiteSpace=wrap;" parent="1" vertex="1">
          <mxGeometry x="1220.5" y="652.5" width="450" height="118" as="geometry" />
        </mxCell>
        <mxCell id="7OVz4w7n9kzEPWy-4BBC-19" value="&lt;span&gt;Lorem ipsum dolor sit amet, consectetur adipiscing elit, sed do eiusmod tempor incididunt ut labore et dolore magna aliqua. Ut enim ad minim veniam, quis nostrud exercitation ullamco laboris nisi ut aliquip ex ea commodo consequat. Duis aute irure dolor in reprehenderit in voluptate velit esse cillum dolore eu fugiat nulla pariatur. Excepteur sint occaecat cupidatat non proident, sunt in culpa qui officia deserunt mollit anim id est laborum.&lt;/span&gt;&lt;br&gt;" style="text;html=1;align=left;verticalAlign=top;spacingTop=-4;fontSize=14;labelBackgroundColor=none;whiteSpace=wrap;" parent="1" vertex="1">
          <mxGeometry x="1220.5" y="767.5" width="449" height="113" as="geometry" />
        </mxCell>
        <mxCell id="7OVz4w7n9kzEPWy-4BBC-20" value="&lt;span&gt;Lorem ipsum dolor sit amet, consectetur adipiscing elit, sed do eiusmod tempor incididunt ut labore et dolore magna aliqua. Ut enim ad minim veniam, quis nostrud exercitation ullamco laboris nisi ut aliquip ex ea commodo consequat. Duis aute irure dolor in reprehenderit in voluptate velit esse cillum dolore eu fugiat nulla pariatur. Excepteur sint occaecat cupidatat non proident, sunt in culpa qui officia deserunt mollit anim id est laborum.&lt;/span&gt;&lt;br&gt;" style="text;html=1;align=left;verticalAlign=top;spacingTop=-4;fontSize=14;labelBackgroundColor=none;whiteSpace=wrap;" parent="1" vertex="1">
          <mxGeometry x="1220.5" y="886.5" width="449" height="124" as="geometry" />
        </mxCell>
        <mxCell id="7OVz4w7n9kzEPWy-4BBC-21" value="&lt;span&gt;Lorem ipsum dolor sit amet, consectetur adipiscing elit, sed do eiusmod tempor incididunt ut labore et dolore magna aliqua. Ut enim ad minim veniam, quis nostrud exercitation ullamco laboris nisi ut aliquip ex ea commodo consequat. Duis aute irure dolor in reprehenderit in voluptate velit esse cillum dolore eu fugiat nulla pariatur. Excepteur sint occaecat cupidatat non proident, sunt in culpa qui officia deserunt mollit anim id est laborum.&lt;/span&gt;&lt;br&gt;" style="text;html=1;align=left;verticalAlign=top;spacingTop=-4;fontSize=14;labelBackgroundColor=none;whiteSpace=wrap;" parent="1" vertex="1">
          <mxGeometry x="1220.5" y="1005.5" width="449" height="115" as="geometry" />
        </mxCell>
        <mxCell id="7OVz4w7n9kzEPWy-4BBC-22" value="10" style="rounded=1;whiteSpace=wrap;html=1;fillColor=#007CBD;strokeColor=none;fontColor=#FFFFFF;fontStyle=1;fontSize=22;labelBackgroundColor=none;" parent="1" vertex="1">
          <mxGeometry x="1169" y="1130.5" width="40" height="38" as="geometry" />
        </mxCell>
        <mxCell id="7OVz4w7n9kzEPWy-4BBC-23" value="&lt;span&gt;Lorem ipsum dolor sit amet, consectetur adipiscing elit, sed do eiusmod tempor incididunt ut labore et dolore magna aliqua. Ut enim ad minim veniam, quis nostrud exercitation ullamco laboris nisi ut aliquip ex ea commodo consequat. Duis aute irure dolor in reprehenderit in voluptate velit esse cillum dolore eu fugiat nulla pariatur. Excepteur sint occaecat cupidatat non proident, sunt in culpa qui officia deserunt mollit anim id est laborum.&lt;/span&gt;&lt;br&gt;" style="text;html=1;align=left;verticalAlign=top;spacingTop=-4;fontSize=14;labelBackgroundColor=none;whiteSpace=wrap;" parent="1" vertex="1">
          <mxGeometry x="1221.5" y="1131" width="449" height="115" as="geometry" />
        </mxCell>
      </root>
    </mxGraphModel>
  </diagram>
  <diagram id="TJsNO9OGhSTiPV8JMBwX" name="Orchestrator">
    <mxGraphModel dx="1646" dy="1087" grid="1" gridSize="10" guides="1" tooltips="1" connect="1" arrows="1" fold="1" page="1" pageScale="1" pageWidth="850" pageHeight="1100" math="0" shadow="0">
      <root>
        <mxCell id="ZZFgnmNdCCND0KLM0aZo-0" />
        <mxCell id="ZZFgnmNdCCND0KLM0aZo-1" parent="ZZFgnmNdCCND0KLM0aZo-0" />
        <mxCell id="ZZFgnmNdCCND0KLM0aZo-48" value="" style="rounded=0;whiteSpace=wrap;html=1;gradientColor=#ffffff;" parent="ZZFgnmNdCCND0KLM0aZo-1" vertex="1">
          <mxGeometry x="20" y="50" width="800" height="380" as="geometry" />
        </mxCell>
        <mxCell id="ZZFgnmNdCCND0KLM0aZo-31" style="edgeStyle=orthogonalEdgeStyle;rounded=0;orthogonalLoop=1;jettySize=auto;html=1;entryX=0.434;entryY=-0.005;entryDx=0;entryDy=0;entryPerimeter=0;" parent="ZZFgnmNdCCND0KLM0aZo-1" source="ZZFgnmNdCCND0KLM0aZo-11" target="ZZFgnmNdCCND0KLM0aZo-12" edge="1">
          <mxGeometry relative="1" as="geometry" />
        </mxCell>
        <mxCell id="ZZFgnmNdCCND0KLM0aZo-32" style="edgeStyle=orthogonalEdgeStyle;rounded=0;orthogonalLoop=1;jettySize=auto;html=1;entryX=0.5;entryY=0;entryDx=0;entryDy=0;" parent="ZZFgnmNdCCND0KLM0aZo-1" source="ZZFgnmNdCCND0KLM0aZo-11" target="ZZFgnmNdCCND0KLM0aZo-18" edge="1">
          <mxGeometry relative="1" as="geometry" />
        </mxCell>
        <mxCell id="ZZFgnmNdCCND0KLM0aZo-33" style="edgeStyle=orthogonalEdgeStyle;rounded=0;orthogonalLoop=1;jettySize=auto;html=1;entryX=0.559;entryY=-0.011;entryDx=0;entryDy=0;entryPerimeter=0;" parent="ZZFgnmNdCCND0KLM0aZo-1" source="ZZFgnmNdCCND0KLM0aZo-11" target="ZZFgnmNdCCND0KLM0aZo-24" edge="1">
          <mxGeometry relative="1" as="geometry" />
        </mxCell>
        <mxCell id="ZZFgnmNdCCND0KLM0aZo-11" value="&lt;font style=&quot;font-size: 24px&quot;&gt;Orchestrtor&lt;/font&gt;" style="rounded=0;whiteSpace=wrap;html=1;fillColor=#ffcc99;strokeColor=#36393d;" parent="ZZFgnmNdCCND0KLM0aZo-1" vertex="1">
          <mxGeometry x="60" y="70" width="450" height="50" as="geometry" />
        </mxCell>
        <mxCell id="ZZFgnmNdCCND0KLM0aZo-16" value="" style="group" parent="ZZFgnmNdCCND0KLM0aZo-1" vertex="1" connectable="0">
          <mxGeometry x="50" y="170" width="140" height="230" as="geometry" />
        </mxCell>
        <mxCell id="ZZFgnmNdCCND0KLM0aZo-12" value="" style="rounded=0;whiteSpace=wrap;html=1;" parent="ZZFgnmNdCCND0KLM0aZo-16" vertex="1">
          <mxGeometry width="140" height="230" as="geometry" />
        </mxCell>
        <mxCell id="ZZFgnmNdCCND0KLM0aZo-8" value="" style="html=1;dashed=0;whitespace=wrap;fillColor=#2875E2;strokeColor=#ffffff;points=[[0.005,0.63,0],[0.1,0.2,0],[0.9,0.2,0],[0.5,0,0],[0.995,0.63,0],[0.72,0.99,0],[0.5,1,0],[0.28,0.99,0]];shape=mxgraph.kubernetes.icon;prIcon=pod" parent="ZZFgnmNdCCND0KLM0aZo-16" vertex="1">
          <mxGeometry x="30" y="10" width="70" height="48" as="geometry" />
        </mxCell>
        <mxCell id="ZZFgnmNdCCND0KLM0aZo-13" value="" style="html=1;dashed=0;whitespace=wrap;strokeColor=#ffffff;points=[[0.005,0.63,0],[0.1,0.2,0],[0.9,0.2,0],[0.5,0,0],[0.995,0.63,0],[0.72,0.99,0],[0.5,1,0],[0.28,0.99,0]];shape=mxgraph.kubernetes.icon;prIcon=pod;gradientColor=#ffffff;fillColor=#FFB570;" parent="ZZFgnmNdCCND0KLM0aZo-16" vertex="1">
          <mxGeometry x="40" y="70" width="50" height="54" as="geometry" />
        </mxCell>
        <mxCell id="ZZFgnmNdCCND0KLM0aZo-14" value="" style="html=1;dashed=0;whitespace=wrap;strokeColor=#ffffff;points=[[0.005,0.63,0],[0.1,0.2,0],[0.9,0.2,0],[0.5,0,0],[0.995,0.63,0],[0.72,0.99,0],[0.5,1,0],[0.28,0.99,0]];shape=mxgraph.kubernetes.icon;prIcon=pod;fillColor=#FF6666;" parent="ZZFgnmNdCCND0KLM0aZo-16" vertex="1">
          <mxGeometry x="40" y="142" width="50" height="48" as="geometry" />
        </mxCell>
        <mxCell id="ZZFgnmNdCCND0KLM0aZo-15" value="&lt;font style=&quot;font-size: 18px&quot;&gt;Node-1&lt;/font&gt;" style="text;html=1;resizable=0;autosize=1;align=center;verticalAlign=middle;points=[];fillColor=none;strokeColor=none;rounded=0;" parent="ZZFgnmNdCCND0KLM0aZo-16" vertex="1">
          <mxGeometry x="35" y="210" width="70" height="20" as="geometry" />
        </mxCell>
        <mxCell id="ZZFgnmNdCCND0KLM0aZo-17" value="" style="group" parent="ZZFgnmNdCCND0KLM0aZo-1" vertex="1" connectable="0">
          <mxGeometry x="215" y="170" width="140" height="230" as="geometry" />
        </mxCell>
        <mxCell id="ZZFgnmNdCCND0KLM0aZo-18" value="" style="rounded=0;whiteSpace=wrap;html=1;" parent="ZZFgnmNdCCND0KLM0aZo-17" vertex="1">
          <mxGeometry width="140" height="230" as="geometry" />
        </mxCell>
        <mxCell id="ZZFgnmNdCCND0KLM0aZo-19" value="" style="html=1;dashed=0;whitespace=wrap;fillColor=#2875E2;strokeColor=#ffffff;points=[[0.005,0.63,0],[0.1,0.2,0],[0.9,0.2,0],[0.5,0,0],[0.995,0.63,0],[0.72,0.99,0],[0.5,1,0],[0.28,0.99,0]];shape=mxgraph.kubernetes.icon;prIcon=pod" parent="ZZFgnmNdCCND0KLM0aZo-17" vertex="1">
          <mxGeometry x="30" y="10" width="70" height="48" as="geometry" />
        </mxCell>
        <mxCell id="ZZFgnmNdCCND0KLM0aZo-20" value="" style="html=1;dashed=0;whitespace=wrap;strokeColor=#ffffff;points=[[0.005,0.63,0],[0.1,0.2,0],[0.9,0.2,0],[0.5,0,0],[0.995,0.63,0],[0.72,0.99,0],[0.5,1,0],[0.28,0.99,0]];shape=mxgraph.kubernetes.icon;prIcon=pod;fillColor=#FFB570;" parent="ZZFgnmNdCCND0KLM0aZo-17" vertex="1">
          <mxGeometry x="40" y="76" width="50" height="48" as="geometry" />
        </mxCell>
        <mxCell id="ZZFgnmNdCCND0KLM0aZo-21" value="" style="html=1;dashed=0;whitespace=wrap;strokeColor=#ffffff;points=[[0.005,0.63,0],[0.1,0.2,0],[0.9,0.2,0],[0.5,0,0],[0.995,0.63,0],[0.72,0.99,0],[0.5,1,0],[0.28,0.99,0]];shape=mxgraph.kubernetes.icon;prIcon=pod;fillColor=#B5739D;" parent="ZZFgnmNdCCND0KLM0aZo-17" vertex="1">
          <mxGeometry x="40" y="142" width="50" height="48" as="geometry" />
        </mxCell>
        <mxCell id="ZZFgnmNdCCND0KLM0aZo-22" value="&lt;font style=&quot;font-size: 18px&quot;&gt;Node-2&lt;/font&gt;" style="text;html=1;resizable=0;autosize=1;align=center;verticalAlign=middle;points=[];fillColor=none;strokeColor=none;rounded=0;" parent="ZZFgnmNdCCND0KLM0aZo-17" vertex="1">
          <mxGeometry x="35" y="210" width="70" height="20" as="geometry" />
        </mxCell>
        <mxCell id="ZZFgnmNdCCND0KLM0aZo-23" value="" style="group" parent="ZZFgnmNdCCND0KLM0aZo-1" vertex="1" connectable="0">
          <mxGeometry x="380" y="170" width="140" height="230" as="geometry" />
        </mxCell>
        <mxCell id="ZZFgnmNdCCND0KLM0aZo-24" value="" style="rounded=0;whiteSpace=wrap;html=1;" parent="ZZFgnmNdCCND0KLM0aZo-23" vertex="1">
          <mxGeometry width="140" height="230" as="geometry" />
        </mxCell>
        <mxCell id="ZZFgnmNdCCND0KLM0aZo-25" value="" style="html=1;dashed=0;whitespace=wrap;strokeColor=#ffffff;points=[[0.005,0.63,0],[0.1,0.2,0],[0.9,0.2,0],[0.5,0,0],[0.995,0.63,0],[0.72,0.99,0],[0.5,1,0],[0.28,0.99,0]];shape=mxgraph.kubernetes.icon;prIcon=pod;fillColor=#B5739D;" parent="ZZFgnmNdCCND0KLM0aZo-23" vertex="1">
          <mxGeometry x="30" y="10" width="70" height="48" as="geometry" />
        </mxCell>
        <mxCell id="ZZFgnmNdCCND0KLM0aZo-26" value="" style="html=1;dashed=0;whitespace=wrap;strokeColor=#ffffff;points=[[0.005,0.63,0],[0.1,0.2,0],[0.9,0.2,0],[0.5,0,0],[0.995,0.63,0],[0.72,0.99,0],[0.5,1,0],[0.28,0.99,0]];shape=mxgraph.kubernetes.icon;prIcon=pod;fillColor=#FF6666;" parent="ZZFgnmNdCCND0KLM0aZo-23" vertex="1">
          <mxGeometry x="40" y="76" width="50" height="48" as="geometry" />
        </mxCell>
        <mxCell id="ZZFgnmNdCCND0KLM0aZo-27" value="" style="html=1;dashed=0;whitespace=wrap;fillColor=#2875E2;strokeColor=#ffffff;points=[[0.005,0.63,0],[0.1,0.2,0],[0.9,0.2,0],[0.5,0,0],[0.995,0.63,0],[0.72,0.99,0],[0.5,1,0],[0.28,0.99,0]];shape=mxgraph.kubernetes.icon;prIcon=pod" parent="ZZFgnmNdCCND0KLM0aZo-23" vertex="1">
          <mxGeometry x="40" y="142" width="50" height="48" as="geometry" />
        </mxCell>
        <mxCell id="ZZFgnmNdCCND0KLM0aZo-28" value="&lt;font style=&quot;font-size: 18px&quot;&gt;Node-3&lt;/font&gt;" style="text;html=1;resizable=0;autosize=1;align=center;verticalAlign=middle;points=[];fillColor=none;strokeColor=none;rounded=0;" parent="ZZFgnmNdCCND0KLM0aZo-23" vertex="1">
          <mxGeometry x="35" y="210" width="70" height="20" as="geometry" />
        </mxCell>
        <mxCell id="ZZFgnmNdCCND0KLM0aZo-34" value="&lt;font style=&quot;font-size: 18px&quot;&gt;Deploy-Config.Yaml&lt;/font&gt;" style="rounded=0;whiteSpace=wrap;html=1;fillColor=#ffcc99;strokeColor=#36393d;" parent="ZZFgnmNdCCND0KLM0aZo-1" vertex="1">
          <mxGeometry x="610" y="70" width="190" height="50" as="geometry" />
        </mxCell>
        <mxCell id="ZZFgnmNdCCND0KLM0aZo-36" value="" style="rounded=0;whiteSpace=wrap;html=1;" parent="ZZFgnmNdCCND0KLM0aZo-1" vertex="1">
          <mxGeometry x="610" y="120" width="190" height="300" as="geometry" />
        </mxCell>
        <mxCell id="ZZFgnmNdCCND0KLM0aZo-39" value="" style="html=1;dashed=0;whitespace=wrap;fillColor=#2875E2;strokeColor=#ffffff;points=[[0.005,0.63,0],[0.1,0.2,0],[0.9,0.2,0],[0.5,0,0],[0.995,0.63,0],[0.72,0.99,0],[0.5,1,0],[0.28,0.99,0]];shape=mxgraph.kubernetes.icon;prIcon=pod" parent="ZZFgnmNdCCND0KLM0aZo-1" vertex="1">
          <mxGeometry x="700" y="170" width="50" height="48" as="geometry" />
        </mxCell>
        <mxCell id="ZZFgnmNdCCND0KLM0aZo-40" value="" style="html=1;dashed=0;whitespace=wrap;strokeColor=#ffffff;points=[[0.005,0.63,0],[0.1,0.2,0],[0.9,0.2,0],[0.5,0,0],[0.995,0.63,0],[0.72,0.99,0],[0.5,1,0],[0.28,0.99,0]];shape=mxgraph.kubernetes.icon;prIcon=pod;fillColor=#FFB570;" parent="ZZFgnmNdCCND0KLM0aZo-1" vertex="1">
          <mxGeometry x="700" y="230" width="50" height="48" as="geometry" />
        </mxCell>
        <mxCell id="ZZFgnmNdCCND0KLM0aZo-41" value="" style="html=1;dashed=0;whitespace=wrap;strokeColor=#ffffff;points=[[0.005,0.63,0],[0.1,0.2,0],[0.9,0.2,0],[0.5,0,0],[0.995,0.63,0],[0.72,0.99,0],[0.5,1,0],[0.28,0.99,0]];shape=mxgraph.kubernetes.icon;prIcon=pod;gradientColor=#ffffff;fillColor=#FF6666;" parent="ZZFgnmNdCCND0KLM0aZo-1" vertex="1">
          <mxGeometry x="700" y="290" width="50" height="48" as="geometry" />
        </mxCell>
        <mxCell id="ZZFgnmNdCCND0KLM0aZo-42" value="&lt;font style=&quot;font-size: 18px&quot;&gt;App =&amp;nbsp;&lt;/font&gt;" style="text;html=1;resizable=0;autosize=1;align=center;verticalAlign=middle;points=[];fillColor=none;strokeColor=none;rounded=0;" parent="ZZFgnmNdCCND0KLM0aZo-1" vertex="1">
          <mxGeometry x="625" y="140" width="70" height="20" as="geometry" />
        </mxCell>
        <mxCell id="ZZFgnmNdCCND0KLM0aZo-43" value="" style="html=1;dashed=0;whitespace=wrap;strokeColor=#ffffff;points=[[0.005,0.63,0],[0.1,0.2,0],[0.9,0.2,0],[0.5,0,0],[0.995,0.63,0],[0.72,0.99,0],[0.5,1,0],[0.28,0.99,0]];shape=mxgraph.kubernetes.icon;prIcon=pod;gradientColor=#ffffff;fillColor=#B5739D;" parent="ZZFgnmNdCCND0KLM0aZo-1" vertex="1">
          <mxGeometry x="700" y="350" width="50" height="48" as="geometry" />
        </mxCell>
        <mxCell id="ZZFgnmNdCCND0KLM0aZo-44" value="&lt;font style=&quot;font-size: 18px&quot;&gt;3 X&lt;/font&gt;" style="text;html=1;resizable=0;autosize=1;align=center;verticalAlign=middle;points=[];fillColor=none;strokeColor=none;rounded=0;" parent="ZZFgnmNdCCND0KLM0aZo-1" vertex="1">
          <mxGeometry x="640" y="184" width="40" height="20" as="geometry" />
        </mxCell>
        <mxCell id="ZZFgnmNdCCND0KLM0aZo-45" value="&lt;font style=&quot;font-size: 18px&quot;&gt;+ 2 X&lt;/font&gt;" style="text;html=1;resizable=0;autosize=1;align=center;verticalAlign=middle;points=[];fillColor=none;strokeColor=none;rounded=0;" parent="ZZFgnmNdCCND0KLM0aZo-1" vertex="1">
          <mxGeometry x="630" y="244" width="60" height="20" as="geometry" />
        </mxCell>
        <mxCell id="ZZFgnmNdCCND0KLM0aZo-46" value="&lt;font style=&quot;font-size: 18px&quot;&gt;+ 2 X&lt;/font&gt;" style="text;html=1;resizable=0;autosize=1;align=center;verticalAlign=middle;points=[];fillColor=none;strokeColor=none;rounded=0;" parent="ZZFgnmNdCCND0KLM0aZo-1" vertex="1">
          <mxGeometry x="630" y="304" width="60" height="20" as="geometry" />
        </mxCell>
        <mxCell id="ZZFgnmNdCCND0KLM0aZo-47" value="&lt;font style=&quot;font-size: 18px&quot;&gt;+ 2 X&lt;/font&gt;" style="text;html=1;resizable=0;autosize=1;align=center;verticalAlign=middle;points=[];fillColor=none;strokeColor=none;rounded=0;" parent="ZZFgnmNdCCND0KLM0aZo-1" vertex="1">
          <mxGeometry x="625" y="360" width="60" height="20" as="geometry" />
        </mxCell>
      </root>
    </mxGraphModel>
  </diagram>
  <diagram id="TCVtnlJ7-oAyBKitXHO0" name="Kubernetes-Cluster Overview">
    <mxGraphModel dx="1646" dy="1087" grid="1" gridSize="10" guides="1" tooltips="1" connect="1" arrows="1" fold="1" page="1" pageScale="1" pageWidth="850" pageHeight="1100" math="0" shadow="0">
      <root>
        <mxCell id="GaAKfoupoFwJPXLwTz-Q-0" />
        <mxCell id="GaAKfoupoFwJPXLwTz-Q-1" parent="GaAKfoupoFwJPXLwTz-Q-0" />
        <mxCell id="vGRYX6WJwNeoR30LITok-26" value="" style="rounded=0;whiteSpace=wrap;html=1;fillColor=#ffffff;gradientColor=#ffffff;" parent="GaAKfoupoFwJPXLwTz-Q-1" vertex="1">
          <mxGeometry x="30" y="70" width="740" height="435" as="geometry" />
        </mxCell>
        <mxCell id="GaAKfoupoFwJPXLwTz-Q-2" value="&lt;font style=&quot;font-size: 24px&quot;&gt;&amp;nbsp; Cluster Overview&amp;nbsp;&lt;/font&gt;" style="rounded=0;whiteSpace=wrap;html=1;fillColor=#ffffff;gradientColor=#ffffff;" parent="GaAKfoupoFwJPXLwTz-Q-1" vertex="1">
          <mxGeometry x="240" y="100" width="340" height="40" as="geometry" />
        </mxCell>
        <mxCell id="GaAKfoupoFwJPXLwTz-Q-7" style="edgeStyle=orthogonalEdgeStyle;rounded=0;orthogonalLoop=1;jettySize=auto;html=1;entryX=0.5;entryY=0;entryDx=0;entryDy=0;" parent="GaAKfoupoFwJPXLwTz-Q-1" source="GaAKfoupoFwJPXLwTz-Q-3" target="GaAKfoupoFwJPXLwTz-Q-4" edge="1">
          <mxGeometry relative="1" as="geometry" />
        </mxCell>
        <mxCell id="GaAKfoupoFwJPXLwTz-Q-8" style="edgeStyle=orthogonalEdgeStyle;rounded=0;orthogonalLoop=1;jettySize=auto;html=1;entryX=0.5;entryY=0;entryDx=0;entryDy=0;" parent="GaAKfoupoFwJPXLwTz-Q-1" source="GaAKfoupoFwJPXLwTz-Q-3" target="GaAKfoupoFwJPXLwTz-Q-5" edge="1">
          <mxGeometry relative="1" as="geometry" />
        </mxCell>
        <mxCell id="GaAKfoupoFwJPXLwTz-Q-9" style="edgeStyle=orthogonalEdgeStyle;rounded=0;orthogonalLoop=1;jettySize=auto;html=1;entryX=0.613;entryY=-0.019;entryDx=0;entryDy=0;entryPerimeter=0;" parent="GaAKfoupoFwJPXLwTz-Q-1" source="GaAKfoupoFwJPXLwTz-Q-3" target="GaAKfoupoFwJPXLwTz-Q-6" edge="1">
          <mxGeometry relative="1" as="geometry">
            <Array as="points">
              <mxPoint x="709" y="225" />
            </Array>
          </mxGeometry>
        </mxCell>
        <mxCell id="GaAKfoupoFwJPXLwTz-Q-3" value="" style="rounded=0;whiteSpace=wrap;html=1;fillColor=#ffffff;gradientColor=#ffffff;" parent="GaAKfoupoFwJPXLwTz-Q-1" vertex="1">
          <mxGeometry x="190" y="160" width="120" height="130" as="geometry" />
        </mxCell>
        <mxCell id="GaAKfoupoFwJPXLwTz-Q-11" style="edgeStyle=orthogonalEdgeStyle;rounded=0;orthogonalLoop=1;jettySize=auto;html=1;entryX=0.25;entryY=1;entryDx=0;entryDy=0;" parent="GaAKfoupoFwJPXLwTz-Q-1" source="GaAKfoupoFwJPXLwTz-Q-4" target="vGRYX6WJwNeoR30LITok-3" edge="1">
          <mxGeometry relative="1" as="geometry">
            <mxPoint x="720" y="430" as="targetPoint" />
            <Array as="points">
              <mxPoint x="460" y="490" />
              <mxPoint x="720" y="490" />
              <mxPoint x="720" y="330" />
            </Array>
          </mxGeometry>
        </mxCell>
        <mxCell id="GaAKfoupoFwJPXLwTz-Q-4" value="&lt;span style=&quot;color: rgba(0 , 0 , 0 , 0) ; font-family: monospace ; font-size: 0px&quot;&gt;%3CmxGraphModel%3E%3Croot%3E%3CmxCell%20id%3D%220%22%2F%3E%3CmxCell%20id%3D%221%22%20parent%3D%220%22%2F%3E%3CmxCell%20id%3D%222%22%20value%3D%22%26lt%3Bspan%20style%3D%26quot%3Bcolor%3A%20rgb(0%2C%200%2C%200)%3B%20font-family%3A%20helvetica%3B%20font-size%3A%2018px%3B%20font-style%3A%20normal%3B%20font-weight%3A%20400%3B%20letter-spacing%3A%20normal%3B%20text-align%3A%20center%3B%20text-indent%3A%200px%3B%20text-transform%3A%20none%3B%20word-spacing%3A%200px%3B%20background-color%3A%20rgb(248%2C%20249%2C%20250)%3B%20display%3A%20inline%3B%20float%3A%20none%3B%26quot%3B%26gt%3BNode-1%26lt%3B%2Fspan%26gt%3B%22%20style%3D%22text%3BwhiteSpace%3Dwrap%3Bhtml%3D1%3B%22%20vertex%3D%221%22%20parent%3D%221%22%3E%3CmxGeometry%20x%3D%22250%22%20y%3D%22610%22%20width%3D%2280%22%20height%3D%2230%22%20as%3D%22geometry%22%2F%3E%3C%2FmxCell%3E%3C%2Froot%3E%3C%2FmxGraphModel%3E&lt;/span&gt;" style="rounded=0;whiteSpace=wrap;html=1;fillColor=#ffffff;gradientColor=#ffffff;" parent="GaAKfoupoFwJPXLwTz-Q-1" vertex="1">
          <mxGeometry x="390" y="290" width="85" height="130" as="geometry" />
        </mxCell>
        <mxCell id="GaAKfoupoFwJPXLwTz-Q-5" value="" style="rounded=0;whiteSpace=wrap;html=1;fillColor=#ffffff;gradientColor=#ffffff;" parent="GaAKfoupoFwJPXLwTz-Q-1" vertex="1">
          <mxGeometry x="530" y="288" width="90" height="130" as="geometry" />
        </mxCell>
        <mxCell id="GaAKfoupoFwJPXLwTz-Q-10" style="edgeStyle=orthogonalEdgeStyle;rounded=0;orthogonalLoop=1;jettySize=auto;html=1;entryX=0.5;entryY=1;entryDx=0;entryDy=0;" parent="GaAKfoupoFwJPXLwTz-Q-1" source="GaAKfoupoFwJPXLwTz-Q-6" target="GaAKfoupoFwJPXLwTz-Q-4" edge="1">
          <mxGeometry relative="1" as="geometry">
            <mxPoint x="770" y="720" as="targetPoint" />
            <Array as="points">
              <mxPoint x="700" y="470" />
              <mxPoint x="433" y="470" />
            </Array>
          </mxGeometry>
        </mxCell>
        <mxCell id="GaAKfoupoFwJPXLwTz-Q-6" value="" style="rounded=0;whiteSpace=wrap;html=1;fillColor=#ffffff;gradientColor=#ffffff;" parent="GaAKfoupoFwJPXLwTz-Q-1" vertex="1">
          <mxGeometry x="660" y="288" width="80" height="130" as="geometry" />
        </mxCell>
        <mxCell id="GaAKfoupoFwJPXLwTz-Q-13" style="edgeStyle=orthogonalEdgeStyle;rounded=0;orthogonalLoop=1;jettySize=auto;html=1;exitX=0.5;exitY=1;exitDx=0;exitDy=0;entryX=0.869;entryY=1.015;entryDx=0;entryDy=0;entryPerimeter=0;" parent="GaAKfoupoFwJPXLwTz-Q-1" source="GaAKfoupoFwJPXLwTz-Q-5" target="GaAKfoupoFwJPXLwTz-Q-6" edge="1">
          <mxGeometry relative="1" as="geometry">
            <mxPoint x="730" y="430" as="targetPoint" />
            <mxPoint x="590" y="480" as="sourcePoint" />
            <Array as="points">
              <mxPoint x="575" y="440" />
              <mxPoint x="730" y="440" />
            </Array>
          </mxGeometry>
        </mxCell>
        <mxCell id="vGRYX6WJwNeoR30LITok-0" value="&lt;span style=&quot;color: rgb(0 , 0 , 0) ; font-family: &amp;#34;helvetica&amp;#34; ; font-style: normal ; font-weight: 400 ; letter-spacing: normal ; text-align: center ; text-indent: 0px ; text-transform: none ; word-spacing: 0px ; background-color: rgb(248 , 249 , 250) ; display: inline ; float: none&quot;&gt;&lt;font style=&quot;font-size: 14px&quot;&gt;Node-1&lt;/font&gt;&lt;/span&gt;" style="text;whiteSpace=wrap;html=1;" parent="GaAKfoupoFwJPXLwTz-Q-1" vertex="1">
          <mxGeometry x="405" y="390" width="50" height="30" as="geometry" />
        </mxCell>
        <mxCell id="vGRYX6WJwNeoR30LITok-1" value="&lt;span style=&quot;color: rgb(0 , 0 , 0) ; font-family: &amp;#34;helvetica&amp;#34; ; font-size: 18px ; font-style: normal ; font-weight: 400 ; letter-spacing: normal ; text-align: center ; text-indent: 0px ; text-transform: none ; word-spacing: 0px ; background-color: rgb(248 , 249 , 250) ; display: inline ; float: none&quot;&gt;Node-2&lt;/span&gt;" style="text;whiteSpace=wrap;html=1;" parent="GaAKfoupoFwJPXLwTz-Q-1" vertex="1">
          <mxGeometry x="550" y="390" width="80" height="30" as="geometry" />
        </mxCell>
        <mxCell id="vGRYX6WJwNeoR30LITok-2" value="&lt;span style=&quot;color: rgb(0 , 0 , 0) ; font-family: &amp;#34;helvetica&amp;#34; ; font-size: 18px ; font-style: normal ; font-weight: 400 ; letter-spacing: normal ; text-align: center ; text-indent: 0px ; text-transform: none ; word-spacing: 0px ; background-color: rgb(248 , 249 , 250) ; display: inline ; float: none&quot;&gt;Node-3&lt;/span&gt;" style="text;whiteSpace=wrap;html=1;" parent="GaAKfoupoFwJPXLwTz-Q-1" vertex="1">
          <mxGeometry x="670" y="388" width="80" height="30" as="geometry" />
        </mxCell>
        <mxCell id="vGRYX6WJwNeoR30LITok-3" value="" style="strokeWidth=1;html=1;shadow=0;dashed=0;shape=mxgraph.android.rect;rounded=1;fillColor=#cce5ff;strokeColor=#36393d;" parent="GaAKfoupoFwJPXLwTz-Q-1" vertex="1">
          <mxGeometry x="680" y="310" width="50" height="20" as="geometry" />
        </mxCell>
        <mxCell id="vGRYX6WJwNeoR30LITok-4" value="" style="strokeWidth=1;html=1;shadow=0;dashed=0;shape=mxgraph.android.spinner2;fontStyle=0;align=center;verticalAlign=middle;strokeColor=#36393d;fillColor=#cce5ff;" parent="vGRYX6WJwNeoR30LITok-3" vertex="1">
          <mxGeometry x="1.2820512820512822" y="2.857142857142857" width="28.632478632478634" height="11.428571428571429" as="geometry" />
        </mxCell>
        <mxCell id="vGRYX6WJwNeoR30LITok-7" value="" style="strokeWidth=1;html=1;shadow=0;dashed=0;shape=mxgraph.android.rect;rounded=1;fillColor=#cce5ff;strokeColor=#36393d;" parent="GaAKfoupoFwJPXLwTz-Q-1" vertex="1">
          <mxGeometry x="545" y="310" width="60" height="20" as="geometry" />
        </mxCell>
        <mxCell id="vGRYX6WJwNeoR30LITok-8" value="" style="strokeWidth=1;html=1;shadow=0;dashed=0;shape=mxgraph.android.spinner2;fontStyle=0;fontColor=#ffffff;align=center;verticalAlign=middle;strokeColor=#666666;fillColor=#666666;" parent="vGRYX6WJwNeoR30LITok-7" vertex="1">
          <mxGeometry x="1.5384615384615388" y="2.857142857142857" width="34.35897435897436" height="11.428571428571429" as="geometry" />
        </mxCell>
        <mxCell id="vGRYX6WJwNeoR30LITok-9" value="" style="strokeWidth=1;html=1;shadow=0;dashed=0;shape=mxgraph.android.rect;rounded=1;fillColor=#cce5ff;strokeColor=#36393d;" parent="GaAKfoupoFwJPXLwTz-Q-1" vertex="1">
          <mxGeometry x="405" y="350" width="60" height="20" as="geometry" />
        </mxCell>
        <mxCell id="vGRYX6WJwNeoR30LITok-10" value="" style="strokeWidth=1;html=1;shadow=0;dashed=0;shape=mxgraph.android.spinner2;fontStyle=0;fontColor=#ffffff;align=center;verticalAlign=middle;strokeColor=#666666;fillColor=#666666;" parent="vGRYX6WJwNeoR30LITok-9" vertex="1">
          <mxGeometry x="1.5384615384615388" y="2.857142857142857" width="34.35897435897436" height="11.428571428571429" as="geometry" />
        </mxCell>
        <mxCell id="vGRYX6WJwNeoR30LITok-11" value="" style="strokeWidth=1;html=1;shadow=0;dashed=0;shape=mxgraph.android.rect;rounded=1;fillColor=#cce5ff;strokeColor=#36393d;" parent="GaAKfoupoFwJPXLwTz-Q-1" vertex="1">
          <mxGeometry x="405" y="310" width="60" height="20" as="geometry" />
        </mxCell>
        <mxCell id="vGRYX6WJwNeoR30LITok-12" value="" style="strokeWidth=1;html=1;shadow=0;dashed=0;shape=mxgraph.android.spinner2;fontStyle=0;fontColor=#ffffff;align=center;verticalAlign=middle;strokeColor=#666666;fillColor=#666666;" parent="vGRYX6WJwNeoR30LITok-11" vertex="1">
          <mxGeometry x="1.5384615384615385" y="2.857142857142857" width="34.35897435897436" height="11.428571428571429" as="geometry" />
        </mxCell>
        <mxCell id="vGRYX6WJwNeoR30LITok-15" value="" style="strokeWidth=1;html=1;shadow=0;dashed=0;shape=mxgraph.android.rect;rounded=1;strokeColor=#33b5e5;fillColor=#FFB570;" parent="GaAKfoupoFwJPXLwTz-Q-1" vertex="1">
          <mxGeometry x="217.05" y="180" width="67.95" height="28" as="geometry" />
        </mxCell>
        <mxCell id="vGRYX6WJwNeoR30LITok-16" value="" style="strokeWidth=1;html=1;shadow=0;dashed=0;shape=mxgraph.android.spinner2;fontStyle=0;fontColor=#ffffff;align=center;verticalAlign=middle;strokeColor=#666666;fillColor=#666666;" parent="vGRYX6WJwNeoR30LITok-15" vertex="1">
          <mxGeometry x="1.7423076923076926" y="4" width="38.91153846153846" height="16" as="geometry" />
        </mxCell>
        <mxCell id="vGRYX6WJwNeoR30LITok-18" value="" style="strokeWidth=1;html=1;shadow=0;dashed=0;shape=mxgraph.android.rect;rounded=1;fillColor=#cce5ff;strokeColor=#36393d;" parent="GaAKfoupoFwJPXLwTz-Q-1" vertex="1">
          <mxGeometry x="545" y="350" width="55" height="20" as="geometry" />
        </mxCell>
        <mxCell id="vGRYX6WJwNeoR30LITok-19" value="" style="strokeWidth=1;html=1;shadow=0;dashed=0;shape=mxgraph.android.spinner2;fontStyle=0;fontColor=#ffffff;align=center;verticalAlign=middle;strokeColor=#666666;fillColor=#666666;" parent="vGRYX6WJwNeoR30LITok-18" vertex="1">
          <mxGeometry x="1.4102564102564104" y="2.857142857142857" width="31.495726495726498" height="11.428571428571429" as="geometry" />
        </mxCell>
        <mxCell id="vGRYX6WJwNeoR30LITok-21" value="" style="strokeWidth=1;html=1;shadow=0;dashed=0;shape=mxgraph.android.rect;rounded=1;fillColor=#cce5ff;strokeColor=#36393d;" parent="GaAKfoupoFwJPXLwTz-Q-1" vertex="1">
          <mxGeometry x="680" y="350" width="50" height="20" as="geometry" />
        </mxCell>
        <mxCell id="vGRYX6WJwNeoR30LITok-22" value="" style="strokeWidth=1;html=1;shadow=0;dashed=0;shape=mxgraph.android.spinner2;fontStyle=0;fontColor=#ffffff;align=center;verticalAlign=middle;strokeColor=#666666;fillColor=#666666;" parent="vGRYX6WJwNeoR30LITok-21" vertex="1">
          <mxGeometry x="1.2820512820512822" y="2.857142857142857" width="28.632478632478634" height="11.428571428571429" as="geometry" />
        </mxCell>
        <mxCell id="vGRYX6WJwNeoR30LITok-27" value="" style="strokeWidth=1;html=1;shadow=0;dashed=0;shape=mxgraph.android.rect;rounded=1;strokeColor=#36393d;fillColor=#FFB570;" parent="GaAKfoupoFwJPXLwTz-Q-1" vertex="1">
          <mxGeometry x="217.05" y="220" width="72.95" height="30" as="geometry" />
        </mxCell>
        <mxCell id="vGRYX6WJwNeoR30LITok-28" value="" style="strokeWidth=1;html=1;shadow=0;dashed=0;shape=mxgraph.android.spinner2;fontStyle=0;fontColor=#ffffff;align=center;verticalAlign=middle;strokeColor=#666666;fillColor=#666666;" parent="vGRYX6WJwNeoR30LITok-27" vertex="1">
          <mxGeometry x="1.870512820512821" y="4.285714285714286" width="41.77478632478633" height="17.142857142857142" as="geometry" />
        </mxCell>
        <mxCell id="vGRYX6WJwNeoR30LITok-30" style="edgeStyle=orthogonalEdgeStyle;rounded=0;orthogonalLoop=1;jettySize=auto;html=1;exitX=0.75;exitY=1;exitDx=0;exitDy=0;entryX=0.76;entryY=0.5;entryDx=0;entryDy=0;entryPerimeter=0;fillColor=#cce5ff;strokeColor=#36393d;" parent="GaAKfoupoFwJPXLwTz-Q-1" source="vGRYX6WJwNeoR30LITok-21" target="vGRYX6WJwNeoR30LITok-21" edge="1">
          <mxGeometry relative="1" as="geometry" />
        </mxCell>
        <mxCell id="vGRYX6WJwNeoR30LITok-38" style="edgeStyle=orthogonalEdgeStyle;rounded=0;orthogonalLoop=1;jettySize=auto;html=1;entryX=1;entryY=0.75;entryDx=0;entryDy=0;" parent="GaAKfoupoFwJPXLwTz-Q-1" source="vGRYX6WJwNeoR30LITok-31" target="vGRYX6WJwNeoR30LITok-33" edge="1">
          <mxGeometry relative="1" as="geometry">
            <Array as="points">
              <mxPoint x="240" y="390" />
            </Array>
          </mxGeometry>
        </mxCell>
        <mxCell id="vGRYX6WJwNeoR30LITok-31" value="&lt;span style=&quot;color: rgb(0 , 0 , 0) ; font-family: &amp;#34;helvetica&amp;#34; ; font-style: normal ; font-weight: 400 ; letter-spacing: normal ; text-align: center ; text-indent: 0px ; text-transform: none ; word-spacing: 0px ; background-color: rgb(248 , 249 , 250) ; display: inline ; float: none&quot;&gt;&lt;font style=&quot;font-size: 14px&quot;&gt;Control Plane&lt;/font&gt;&lt;/span&gt;" style="text;whiteSpace=wrap;html=1;" parent="GaAKfoupoFwJPXLwTz-Q-1" vertex="1">
          <mxGeometry x="200" y="260" width="100" height="30" as="geometry" />
        </mxCell>
        <mxCell id="vGRYX6WJwNeoR30LITok-39" style="edgeStyle=orthogonalEdgeStyle;rounded=0;orthogonalLoop=1;jettySize=auto;html=1;entryX=-0.035;entryY=0.577;entryDx=0;entryDy=0;entryPerimeter=0;" parent="GaAKfoupoFwJPXLwTz-Q-1" source="vGRYX6WJwNeoR30LITok-32" target="GaAKfoupoFwJPXLwTz-Q-3" edge="1">
          <mxGeometry relative="1" as="geometry" />
        </mxCell>
        <mxCell id="vGRYX6WJwNeoR30LITok-32" value="Tasks" style="rounded=0;whiteSpace=wrap;html=1;fillColor=#FFB570;gradientColor=#ffffff;" parent="GaAKfoupoFwJPXLwTz-Q-1" vertex="1">
          <mxGeometry x="40" y="215" width="100" height="40" as="geometry" />
        </mxCell>
        <mxCell id="vGRYX6WJwNeoR30LITok-33" value="Results" style="rounded=0;whiteSpace=wrap;html=1;gradientColor=#ffffff;fillColor=#7EA6E0;" parent="GaAKfoupoFwJPXLwTz-Q-1" vertex="1">
          <mxGeometry x="70" y="360" width="100" height="40" as="geometry" />
        </mxCell>
      </root>
    </mxGraphModel>
  </diagram>
  <diagram id="d73RIG9SNxViJGsdKGmb" name="K8s Components">
    <mxGraphModel dx="2496" dy="3287" grid="1" gridSize="10" guides="1" tooltips="1" connect="1" arrows="1" fold="1" page="1" pageScale="1" pageWidth="850" pageHeight="1100" math="0" shadow="0">
      <root>
        <mxCell id="fe6ABaOvc7ft7hH_d459-0" />
        <mxCell id="fe6ABaOvc7ft7hH_d459-1" parent="fe6ABaOvc7ft7hH_d459-0" />
        <mxCell id="GKQuukm-Y2J_eNUcY7hA-0" value="" style="rounded=0;whiteSpace=wrap;html=1;fillColor=#EAEDED;fontSize=22;fontColor=#FFFFFF;strokeColor=none;labelBackgroundColor=none;" vertex="1" parent="fe6ABaOvc7ft7hH_d459-1">
          <mxGeometry x="-769" y="-2128" width="539" height="1178" as="geometry" />
        </mxCell>
        <mxCell id="GKQuukm-Y2J_eNUcY7hA-1" value="Pod" style="rounded=1;whiteSpace=wrap;html=1;fillColor=#007CBD;strokeColor=none;fontColor=#FFFFFF;fontStyle=1;fontSize=22;labelBackgroundColor=none;" vertex="1" parent="fe6ABaOvc7ft7hH_d459-1">
          <mxGeometry x="-747.5" y="-2120" width="72" height="38" as="geometry" />
        </mxCell>
        <mxCell id="GKQuukm-Y2J_eNUcY7hA-2" value="Service" style="rounded=1;whiteSpace=wrap;html=1;fillColor=#007CBD;strokeColor=none;fontColor=#FFFFFF;fontStyle=1;fontSize=22;labelBackgroundColor=none;" vertex="1" parent="fe6ABaOvc7ft7hH_d459-1">
          <mxGeometry x="-747.5" y="-1970" width="93.5" height="38" as="geometry" />
        </mxCell>
        <mxCell id="GKQuukm-Y2J_eNUcY7hA-3" value="Ingress" style="rounded=1;whiteSpace=wrap;html=1;fillColor=#007CBD;strokeColor=none;fontColor=#FFFFFF;fontStyle=1;fontSize=22;labelBackgroundColor=none;" vertex="1" parent="fe6ABaOvc7ft7hH_d459-1">
          <mxGeometry x="-747.5" y="-1820" width="87.5" height="38" as="geometry" />
        </mxCell>
        <mxCell id="GKQuukm-Y2J_eNUcY7hA-4" value="Configmap" style="rounded=1;whiteSpace=wrap;html=1;fillColor=#007CBD;strokeColor=none;fontColor=#FFFFFF;fontStyle=1;fontSize=22;labelBackgroundColor=none;" vertex="1" parent="fe6ABaOvc7ft7hH_d459-1">
          <mxGeometry x="-746.25" y="-1688" width="116" height="38" as="geometry" />
        </mxCell>
        <mxCell id="GKQuukm-Y2J_eNUcY7hA-5" value="Secrets" style="rounded=1;whiteSpace=wrap;html=1;fillColor=#007CBD;strokeColor=none;fontColor=#FFFFFF;fontStyle=1;fontSize=22;labelBackgroundColor=none;" vertex="1" parent="fe6ABaOvc7ft7hH_d459-1">
          <mxGeometry x="-747.5" y="-1600" width="92" height="38" as="geometry" />
        </mxCell>
        <mxCell id="GKQuukm-Y2J_eNUcY7hA-6" value="volumes" style="rounded=1;whiteSpace=wrap;html=1;fillColor=#007CBD;strokeColor=none;fontColor=#FFFFFF;fontStyle=1;fontSize=22;labelBackgroundColor=none;" vertex="1" parent="fe6ABaOvc7ft7hH_d459-1">
          <mxGeometry x="-747.5" y="-1490" width="102" height="38" as="geometry" />
        </mxCell>
        <mxCell id="GKQuukm-Y2J_eNUcY7hA-7" value="Deployment" style="rounded=1;whiteSpace=wrap;html=1;fillColor=#007CBD;strokeColor=none;fontColor=#FFFFFF;fontStyle=1;fontSize=22;labelBackgroundColor=none;" vertex="1" parent="fe6ABaOvc7ft7hH_d459-1">
          <mxGeometry x="-760.25" y="-1240" width="130" height="38" as="geometry" />
        </mxCell>
        <mxCell id="GKQuukm-Y2J_eNUcY7hA-8" value="&lt;span&gt;&lt;font color=&quot;#1a1a1a&quot;&gt;&lt;span style=&quot;font-size: 17px&quot;&gt;&amp;nbsp;&lt;/span&gt;&lt;br&gt;&lt;div&gt;&lt;span style=&quot;font-size: 17px&quot;&gt;-&lt;span&gt;	&lt;/span&gt;Smallest unit of K8s&lt;/span&gt;&lt;/div&gt;&lt;div&gt;&lt;span style=&quot;font-size: 17px&quot;&gt;-&lt;span&gt;	&lt;/span&gt;abstraction over container&amp;nbsp;&lt;/span&gt;&lt;/div&gt;&lt;div&gt;&lt;span style=&quot;font-size: 17px&quot;&gt;-&lt;span&gt;	&lt;/span&gt;usually 1 application container per pod .&amp;nbsp;&lt;/span&gt;&lt;/div&gt;&lt;div&gt;&lt;span style=&quot;font-size: 17px&quot;&gt;-&lt;span&gt;	&lt;/span&gt; can run multiple container per pod&amp;nbsp;&lt;/span&gt;&lt;/div&gt;&lt;div&gt;&lt;span style=&quot;font-size: 17px&quot;&gt;-&lt;span&gt;	&lt;/span&gt;Each pod gets its own IP address&amp;nbsp;&lt;/span&gt;&lt;/div&gt;&lt;div&gt;&lt;span style=&quot;font-size: 17px&quot;&gt;-&lt;span&gt;	&lt;/span&gt; New Ip address on re-creation&amp;nbsp;&lt;/span&gt;&lt;/div&gt;&lt;div style=&quot;font-size: 17px&quot;&gt;&lt;br&gt;&lt;/div&gt;&lt;/font&gt;&lt;/span&gt;" style="text;html=1;align=left;verticalAlign=top;spacingTop=-4;fontSize=14;labelBackgroundColor=none;whiteSpace=wrap;" vertex="1" parent="fe6ABaOvc7ft7hH_d459-1">
          <mxGeometry x="-649" y="-2128" width="449" height="158" as="geometry" />
        </mxCell>
        <mxCell id="GKQuukm-Y2J_eNUcY7hA-9" value="&lt;div&gt;&lt;font color=&quot;#1a1a1a&quot;&gt;&lt;span style=&quot;font-size: 17px&quot;&gt;- Abstraction layer on Pod in communication&lt;/span&gt;&lt;/font&gt;&lt;/div&gt;&lt;div&gt;&lt;font color=&quot;#1a1a1a&quot;&gt;&lt;span style=&quot;font-size: 17px&quot;&gt;-	Has permanent \static IP address&amp;nbsp; with DNS name&lt;/span&gt;&lt;/font&gt;&lt;/div&gt;&lt;div&gt;&lt;font color=&quot;#1a1a1a&quot;&gt;&lt;span style=&quot;font-size: 17px&quot;&gt;-&lt;span&gt;	&lt;/span&gt;Lifecycle of pod and service not connected&amp;nbsp;&lt;/span&gt;&lt;/font&gt;&lt;/div&gt;&lt;div&gt;&lt;font color=&quot;#1a1a1a&quot;&gt;&lt;span style=&quot;font-size: 17px&quot;&gt;-	Load balancer&lt;/span&gt;&lt;/font&gt;&lt;/div&gt;&lt;div style=&quot;text-align: center&quot;&gt;&lt;br&gt;&lt;/div&gt;" style="text;html=1;align=left;verticalAlign=top;spacingTop=-4;fontSize=14;labelBackgroundColor=none;whiteSpace=wrap;" vertex="1" parent="fe6ABaOvc7ft7hH_d459-1">
          <mxGeometry x="-668" y="-1932" width="450" height="64" as="geometry" />
        </mxCell>
        <mxCell id="GKQuukm-Y2J_eNUcY7hA-10" value="&lt;ul&gt;&lt;li&gt;&lt;span style=&quot;font-size: 17px&quot;&gt;Handles incoming requests&amp;nbsp;&lt;/span&gt;&lt;/li&gt;&lt;li&gt;&lt;span style=&quot;font-size: 17px&quot;&gt;Routed incoming request to the service based on routing rules&lt;/span&gt;&lt;/li&gt;&lt;/ul&gt;" style="text;html=1;align=left;verticalAlign=top;spacingTop=-4;fontSize=14;labelBackgroundColor=none;whiteSpace=wrap;" vertex="1" parent="fe6ABaOvc7ft7hH_d459-1">
          <mxGeometry x="-670" y="-1800" width="450" height="90" as="geometry" />
        </mxCell>
        <mxCell id="GKQuukm-Y2J_eNUcY7hA-11" value="&lt;ul&gt;&lt;li&gt;&lt;span style=&quot;font-size: 17px&quot;&gt;maintain external configuration of application&amp;nbsp;&lt;/span&gt;&lt;/li&gt;&lt;/ul&gt;" style="text;html=1;align=left;verticalAlign=top;spacingTop=-4;fontSize=14;labelBackgroundColor=none;whiteSpace=wrap;" vertex="1" parent="fe6ABaOvc7ft7hH_d459-1">
          <mxGeometry x="-670" y="-1662" width="450" height="82" as="geometry" />
        </mxCell>
        <mxCell id="GKQuukm-Y2J_eNUcY7hA-12" value="&lt;ul&gt;&lt;li&gt;&lt;span style=&quot;font-size: 17px&quot;&gt;Used to store secret data in base 64 encoded format&lt;/span&gt;&lt;/li&gt;&lt;/ul&gt;" style="text;html=1;align=left;verticalAlign=top;spacingTop=-4;fontSize=14;labelBackgroundColor=none;whiteSpace=wrap;" vertex="1" parent="fe6ABaOvc7ft7hH_d459-1">
          <mxGeometry x="-680.5" y="-1562" width="449" height="62" as="geometry" />
        </mxCell>
        <mxCell id="GKQuukm-Y2J_eNUcY7hA-13" value="&lt;ul&gt;&lt;li&gt;&lt;span style=&quot;font-size: 17px&quot;&gt;&amp;nbsp;attach physical drive\ storage on local drive \ on cloud&lt;/span&gt;&lt;/li&gt;&lt;li&gt;&lt;span style=&quot;font-size: 17px&quot;&gt;K8s doesn&#39;t manage data persistance&lt;/span&gt;&lt;/li&gt;&lt;/ul&gt;" style="text;html=1;align=left;verticalAlign=top;spacingTop=-4;fontSize=14;labelBackgroundColor=none;whiteSpace=wrap;" vertex="1" parent="fe6ABaOvc7ft7hH_d459-1">
          <mxGeometry x="-691.5" y="-1452" width="460" height="79" as="geometry" />
        </mxCell>
        <mxCell id="t3G8bSZMYmpiF_mvdIgg-0" value="&lt;ul&gt;&lt;li&gt;&lt;span style=&quot;font-size: 17px&quot;&gt;&amp;nbsp;&lt;/span&gt;&lt;span style=&quot;font-size: 17px&quot;&gt;Define blueprint for app pods&amp;nbsp;&lt;/span&gt;&lt;br&gt;&lt;/li&gt;&lt;li&gt;&lt;span style=&quot;font-size: 17px&quot;&gt;&amp;nbsp;can create deployment to deploy pod replica&lt;/span&gt;&lt;/li&gt;&lt;li&gt;&lt;span style=&quot;font-size: 17px&quot;&gt;&lt;span&gt;&amp;nbsp;&lt;/span&gt;Abstraction of pods&amp;nbsp;&lt;br&gt;&lt;/span&gt;&lt;/li&gt;&lt;li&gt;&lt;span style=&quot;font-size: 17px&quot;&gt;for stateless apps&lt;/span&gt;&lt;/li&gt;&lt;/ul&gt;" style="text;html=1;align=left;verticalAlign=top;spacingTop=-4;fontSize=14;labelBackgroundColor=none;whiteSpace=wrap;" vertex="1" parent="fe6ABaOvc7ft7hH_d459-1">
          <mxGeometry x="-698.75" y="-1210" width="460" height="79" as="geometry" />
        </mxCell>
        <mxCell id="t3G8bSZMYmpiF_mvdIgg-1" value="Stateful Set" style="rounded=1;whiteSpace=wrap;html=1;fillColor=#007CBD;strokeColor=none;fontColor=#FFFFFF;fontStyle=1;fontSize=22;labelBackgroundColor=none;" vertex="1" parent="fe6ABaOvc7ft7hH_d459-1">
          <mxGeometry x="-760.25" y="-1110" width="130" height="38" as="geometry" />
        </mxCell>
        <mxCell id="t3G8bSZMYmpiF_mvdIgg-2" value="&lt;ul&gt;&lt;li&gt;&lt;span style=&quot;font-size: 17px&quot;&gt;DB can’t be replicate as database storage&amp;nbsp;&lt;/span&gt;&lt;/li&gt;&lt;li&gt;&lt;span style=&quot;font-size: 17px&quot;&gt;Keep data storage external to K8 cluster&lt;/span&gt;&lt;/li&gt;&lt;li&gt;&lt;span style=&quot;font-size: 17px&quot;&gt;&lt;span&gt;&amp;nbsp;&lt;/span&gt;Maintain mechanism one pod will write database to avoid data inconsistency&amp;nbsp;&lt;/span&gt;&lt;/li&gt;&lt;li&gt;&lt;span style=&quot;font-size: 17px&quot;&gt;for Stateful apps&lt;/span&gt;&lt;/li&gt;&lt;/ul&gt;" style="text;html=1;align=left;verticalAlign=top;spacingTop=-4;fontSize=14;labelBackgroundColor=none;whiteSpace=wrap;" vertex="1" parent="fe6ABaOvc7ft7hH_d459-1">
          <mxGeometry x="-702.75" y="-1070" width="460" height="110" as="geometry" />
        </mxCell>
        <mxCell id="8kRtcXSC4rCCd9kjAPEj-1" value="Namespaces" style="rounded=1;whiteSpace=wrap;html=1;fillColor=#007CBD;strokeColor=none;fontColor=#FFFFFF;fontStyle=1;fontSize=22;labelBackgroundColor=none;" vertex="1" parent="fe6ABaOvc7ft7hH_d459-1">
          <mxGeometry x="-747.5" y="-1380" width="137.5" height="38" as="geometry" />
        </mxCell>
        <mxCell id="8kRtcXSC4rCCd9kjAPEj-2" value="&lt;ul&gt;&lt;li&gt;&lt;span style=&quot;font-size: 17px&quot;&gt;used for organizing resources in K8s Cluster&lt;/span&gt;&lt;/li&gt;&lt;li&gt;&lt;span style=&quot;font-size: 17px&quot;&gt;Isolate resources from other projects&amp;nbsp;&lt;/span&gt;&lt;/li&gt;&lt;li&gt;&lt;span style=&quot;font-size: 17px&quot;&gt;maintain access &amp;amp; Resource limits on Namespaces&lt;/span&gt;&lt;/li&gt;&lt;/ul&gt;" style="text;html=1;align=left;verticalAlign=top;spacingTop=-4;fontSize=14;labelBackgroundColor=none;whiteSpace=wrap;" vertex="1" parent="fe6ABaOvc7ft7hH_d459-1">
          <mxGeometry x="-691.5" y="-1342" width="460" height="79" as="geometry" />
        </mxCell>
      </root>
    </mxGraphModel>
  </diagram>
  <diagram id="vTaLZfeVgwihqMclgN-j" name="WorkerNode">
    <mxGraphModel dx="3346" dy="3287" grid="1" gridSize="10" guides="1" tooltips="1" connect="1" arrows="1" fold="1" page="1" pageScale="1" pageWidth="850" pageHeight="1100" math="0" shadow="0">
      <root>
        <mxCell id="hTQjOgrD17yYprkliJ2A-0" />
        <mxCell id="hTQjOgrD17yYprkliJ2A-1" parent="hTQjOgrD17yYprkliJ2A-0" />
        <mxCell id="BTKLZrMWDrtxaD_fN1ic-15" value="" style="rounded=0;whiteSpace=wrap;html=1;" vertex="1" parent="hTQjOgrD17yYprkliJ2A-1">
          <mxGeometry x="-1690" y="-2170" width="260" height="380" as="geometry" />
        </mxCell>
        <mxCell id="Rig77iYPI7Kg0prtxEgl-0" value="" style="rounded=0;whiteSpace=wrap;html=1;fontSize=17;fillColor=#dae8fc;strokeColor=#6c8ebf;" vertex="1" parent="hTQjOgrD17yYprkliJ2A-1">
          <mxGeometry x="-1670" y="-2102.75" width="210" height="280" as="geometry" />
        </mxCell>
        <mxCell id="Rig77iYPI7Kg0prtxEgl-1" value="" style="html=1;dashed=0;whitespace=wrap;fillColor=#2875E2;strokeColor=#ffffff;points=[[0.005,0.63,0],[0.1,0.2,0],[0.9,0.2,0],[0.5,0,0],[0.995,0.63,0],[0.72,0.99,0],[0.5,1,0],[0.28,0.99,0]];shape=mxgraph.kubernetes.icon;prIcon=kubelet;fontSize=17;" vertex="1" parent="hTQjOgrD17yYprkliJ2A-1">
          <mxGeometry x="-1540" y="-1863.75" width="50" height="48" as="geometry" />
        </mxCell>
        <mxCell id="Rig77iYPI7Kg0prtxEgl-2" value="" style="aspect=fixed;html=1;points=[];align=center;image;fontSize=12;image=img/lib/mscae/Docker.svg;fillColor=#7EA6E0;gradientColor=none;" vertex="1" parent="hTQjOgrD17yYprkliJ2A-1">
          <mxGeometry x="-1670" y="-1863.75" width="50" height="41" as="geometry" />
        </mxCell>
        <mxCell id="Rig77iYPI7Kg0prtxEgl-3" value="" style="html=1;dashed=0;whitespace=wrap;fillColor=#2875E2;strokeColor=#ffffff;points=[[0.005,0.63,0],[0.1,0.2,0],[0.9,0.2,0],[0.5,0,0],[0.995,0.63,0],[0.72,0.99,0],[0.5,1,0],[0.28,0.99,0]];shape=mxgraph.kubernetes.icon;prIcon=pod;fontSize=17;" vertex="1" parent="hTQjOgrD17yYprkliJ2A-1">
          <mxGeometry x="-1640" y="-2060.25" width="50" height="48" as="geometry" />
        </mxCell>
        <mxCell id="Rig77iYPI7Kg0prtxEgl-4" value="" style="html=1;dashed=0;whitespace=wrap;fillColor=#2875E2;strokeColor=#ffffff;points=[[0.005,0.63,0],[0.1,0.2,0],[0.9,0.2,0],[0.5,0,0],[0.995,0.63,0],[0.72,0.99,0],[0.5,1,0],[0.28,0.99,0]];shape=mxgraph.kubernetes.icon;prIcon=pod;fontSize=17;" vertex="1" parent="hTQjOgrD17yYprkliJ2A-1">
          <mxGeometry x="-1610" y="-2050" width="150" height="48" as="geometry" />
        </mxCell>
        <mxCell id="Rig77iYPI7Kg0prtxEgl-5" value="" style="html=1;dashed=0;whitespace=wrap;fillColor=#2875E2;strokeColor=#ffffff;points=[[0.005,0.63,0],[0.1,0.2,0],[0.9,0.2,0],[0.5,0,0],[0.995,0.63,0],[0.72,0.99,0],[0.5,1,0],[0.28,0.99,0]];shape=mxgraph.kubernetes.icon;prIcon=pod;fontSize=17;" vertex="1" parent="hTQjOgrD17yYprkliJ2A-1">
          <mxGeometry x="-1600" y="-1966.25" width="50" height="48" as="geometry" />
        </mxCell>
        <mxCell id="Rig77iYPI7Kg0prtxEgl-6" value="" style="html=1;dashed=0;whitespace=wrap;fillColor=#2875E2;strokeColor=#ffffff;points=[[0.005,0.63,0],[0.1,0.2,0],[0.9,0.2,0],[0.5,0,0],[0.995,0.63,0],[0.72,0.99,0],[0.5,1,0],[0.28,0.99,0]];shape=mxgraph.kubernetes.icon;prIcon=pod;fontSize=17;direction=west;" vertex="1" parent="hTQjOgrD17yYprkliJ2A-1">
          <mxGeometry x="-1620" y="-2014.25" width="50" height="48" as="geometry" />
        </mxCell>
        <mxCell id="Rig77iYPI7Kg0prtxEgl-7" value="&lt;span style=&quot;background-color: rgb(205 , 162 , 190)&quot;&gt;Node-1&lt;/span&gt;" style="text;html=1;resizable=0;autosize=1;align=center;verticalAlign=middle;points=[];fillColor=none;strokeColor=none;rounded=0;fontSize=17;" vertex="1" parent="hTQjOgrD17yYprkliJ2A-1">
          <mxGeometry x="-1630" y="-1837.25" width="70" height="30" as="geometry" />
        </mxCell>
        <mxCell id="Rig77iYPI7Kg0prtxEgl-8" value="1" style="rounded=1;whiteSpace=wrap;html=1;fillColor=#007CBD;strokeColor=none;fontColor=#FFFFFF;fontStyle=1;fontSize=22;labelBackgroundColor=none;" vertex="1" parent="hTQjOgrD17yYprkliJ2A-1">
          <mxGeometry x="-1690" y="-1875" width="30" height="26.5" as="geometry" />
        </mxCell>
        <mxCell id="Rig77iYPI7Kg0prtxEgl-9" value="3" style="rounded=1;whiteSpace=wrap;html=1;fillColor=#007CBD;strokeColor=none;fontColor=#FFFFFF;fontStyle=1;fontSize=22;labelBackgroundColor=none;arcSize=0;" vertex="1" parent="hTQjOgrD17yYprkliJ2A-1">
          <mxGeometry x="-1500" y="-1858.5" width="30" height="26.5" as="geometry" />
        </mxCell>
        <mxCell id="Rig77iYPI7Kg0prtxEgl-10" value="" style="html=1;dashed=0;whitespace=wrap;fillColor=#2875E2;strokeColor=#ffffff;points=[[0.005,0.63,0],[0.1,0.2,0],[0.9,0.2,0],[0.5,0,0],[0.995,0.63,0],[0.72,0.99,0],[0.5,1,0],[0.28,0.99,0]];shape=mxgraph.kubernetes.icon;prIcon=k_proxy" vertex="1" parent="hTQjOgrD17yYprkliJ2A-1">
          <mxGeometry x="-1600" y="-1880" width="50" height="48" as="geometry" />
        </mxCell>
        <mxCell id="Rig77iYPI7Kg0prtxEgl-11" value="2" style="rounded=1;whiteSpace=wrap;html=1;fillColor=#007CBD;strokeColor=none;fontColor=#FFFFFF;fontStyle=1;fontSize=22;labelBackgroundColor=none;" vertex="1" parent="hTQjOgrD17yYprkliJ2A-1">
          <mxGeometry x="-1578.75" y="-1890.25" width="30" height="26.5" as="geometry" />
        </mxCell>
        <mxCell id="BTKLZrMWDrtxaD_fN1ic-0" value="" style="rounded=0;whiteSpace=wrap;html=1;fillColor=#EAEDED;fontSize=22;fontColor=#FFFFFF;strokeColor=none;labelBackgroundColor=none;" vertex="1" parent="hTQjOgrD17yYprkliJ2A-1">
          <mxGeometry x="-1420" y="-2197.5" width="539" height="407.5" as="geometry" />
        </mxCell>
        <mxCell id="BTKLZrMWDrtxaD_fN1ic-5" value="1" style="rounded=1;whiteSpace=wrap;html=1;fillColor=#007CBD;strokeColor=none;fontColor=#FFFFFF;fontStyle=1;fontSize=22;labelBackgroundColor=none;" vertex="1" parent="hTQjOgrD17yYprkliJ2A-1">
          <mxGeometry x="-1406.25" y="-2111.5" width="40" height="38" as="geometry" />
        </mxCell>
        <mxCell id="BTKLZrMWDrtxaD_fN1ic-6" value="2" style="rounded=1;whiteSpace=wrap;html=1;fillColor=#007CBD;strokeColor=none;fontColor=#FFFFFF;fontStyle=1;fontSize=22;labelBackgroundColor=none;" vertex="1" parent="hTQjOgrD17yYprkliJ2A-1">
          <mxGeometry x="-1403.25" y="-2028.5" width="40" height="38" as="geometry" />
        </mxCell>
        <mxCell id="BTKLZrMWDrtxaD_fN1ic-7" value="3" style="rounded=1;whiteSpace=wrap;html=1;fillColor=#007CBD;strokeColor=none;fontColor=#FFFFFF;fontStyle=1;fontSize=22;labelBackgroundColor=none;" vertex="1" parent="hTQjOgrD17yYprkliJ2A-1">
          <mxGeometry x="-1407.25" y="-1928.5" width="40" height="38" as="geometry" />
        </mxCell>
        <mxCell id="BTKLZrMWDrtxaD_fN1ic-12" value="&lt;u&gt;&lt;font style=&quot;font-size: 17px&quot;&gt;Container Runtime:-&lt;/font&gt;&lt;/u&gt;&amp;nbsp;&lt;span&gt;This will be used to run containers in pods&amp;nbsp;&lt;/span&gt;&lt;span&gt;&amp;nbsp;&lt;/span&gt;&lt;span&gt;&lt;br&gt;&lt;/span&gt;" style="text;html=1;align=left;verticalAlign=top;spacingTop=-4;fontSize=14;labelBackgroundColor=none;whiteSpace=wrap;" vertex="1" parent="hTQjOgrD17yYprkliJ2A-1">
          <mxGeometry x="-1344.75" y="-2111.5" width="449" height="55" as="geometry" />
        </mxCell>
        <mxCell id="BTKLZrMWDrtxaD_fN1ic-13" value="&lt;u&gt;&lt;font style=&quot;font-size: 17px&quot;&gt;Kube-Proxy&lt;/font&gt;&lt;/u&gt;:&amp;nbsp;&amp;nbsp;&lt;br&gt;&lt;div&gt;&lt;ul&gt;&lt;li&gt;&lt;span&gt;Communicate with other pods in the same&amp;nbsp; node and other nodes&lt;/span&gt;&lt;/li&gt;&lt;li&gt;&lt;span&gt;&lt;div&gt;&lt;span&gt;&amp;nbsp;&lt;/span&gt;Forwards requests services&amp;nbsp;&lt;/div&gt;&lt;/span&gt;&lt;/li&gt;&lt;/ul&gt;&lt;/div&gt;" style="text;html=1;align=left;verticalAlign=top;spacingTop=-4;fontSize=14;labelBackgroundColor=none;whiteSpace=wrap;" vertex="1" parent="hTQjOgrD17yYprkliJ2A-1">
          <mxGeometry x="-1344.75" y="-2028.5" width="450" height="79" as="geometry" />
        </mxCell>
        <mxCell id="BTKLZrMWDrtxaD_fN1ic-14" value="&lt;u&gt;&lt;font style=&quot;font-size: 17px&quot;&gt;Kubelet:&lt;/font&gt;&lt;/u&gt;&amp;nbsp;&lt;br&gt;&lt;ul&gt;&lt;li&gt;&lt;span&gt;&amp;nbsp;Interacts with both container&amp;nbsp; and node .&amp;nbsp;&lt;/span&gt;&lt;/li&gt;&lt;li&gt;&amp;nbsp;Starts the pod with container inside.&lt;/li&gt;&lt;/ul&gt;" style="text;html=1;align=left;verticalAlign=top;spacingTop=-4;fontSize=14;labelBackgroundColor=none;whiteSpace=wrap;" vertex="1" parent="hTQjOgrD17yYprkliJ2A-1">
          <mxGeometry x="-1342.75" y="-1928.5" width="449" height="80" as="geometry" />
        </mxCell>
        <mxCell id="BTKLZrMWDrtxaD_fN1ic-16" value="Worker node components" style="rounded=0;whiteSpace=wrap;html=1;fontSize=17;" vertex="1" parent="hTQjOgrD17yYprkliJ2A-1">
          <mxGeometry x="-1670" y="-2160" width="212.5" height="30" as="geometry" />
        </mxCell>
        <mxCell id="BlAPFwatzaT2MLIgKqUV-0" value="&lt;span style=&quot;font-size: 16px&quot;&gt;&lt;span&gt;&lt;u&gt;Worker Node:&lt;/u&gt;&amp;nbsp;Physical (or) virtual machine (or) VM instance in cloud.&lt;br&gt;&lt;/span&gt;&amp;nbsp; contains collection of pods&lt;br&gt;&lt;/span&gt;" style="text;html=1;align=left;verticalAlign=top;spacingTop=-4;fontSize=14;labelBackgroundColor=none;whiteSpace=wrap;" vertex="1" parent="hTQjOgrD17yYprkliJ2A-1">
          <mxGeometry x="-1406.25" y="-2172.5" width="526.25" height="55" as="geometry" />
        </mxCell>
      </root>
    </mxGraphModel>
  </diagram>
  <diagram id="k_N0S0jTrvC584HF-1HP" name="MasterNode">
    <mxGraphModel dx="3346" dy="3287" grid="1" gridSize="10" guides="1" tooltips="1" connect="1" arrows="1" fold="1" page="1" pageScale="1" pageWidth="850" pageHeight="1100" math="0" shadow="0">
      <root>
        <mxCell id="lncvHAz6eV97L1NIkKbv-0" />
        <mxCell id="lncvHAz6eV97L1NIkKbv-1" parent="lncvHAz6eV97L1NIkKbv-0" />
        <mxCell id="aWIV9erqtSvaOrGdd5nY-0" value="" style="rounded=0;whiteSpace=wrap;html=1;fontSize=17;" vertex="1" parent="lncvHAz6eV97L1NIkKbv-1">
          <mxGeometry x="-1689.89" y="-2190" width="889.89" height="700" as="geometry" />
        </mxCell>
        <mxCell id="aWIV9erqtSvaOrGdd5nY-1" style="edgeStyle=orthogonalEdgeStyle;rounded=0;orthogonalLoop=1;jettySize=auto;html=1;entryX=0.5;entryY=0;entryDx=0;entryDy=0;fontSize=17;" edge="1" parent="lncvHAz6eV97L1NIkKbv-1" source="aWIV9erqtSvaOrGdd5nY-6" target="aWIV9erqtSvaOrGdd5nY-11">
          <mxGeometry relative="1" as="geometry" />
        </mxCell>
        <mxCell id="aWIV9erqtSvaOrGdd5nY-2" style="edgeStyle=orthogonalEdgeStyle;rounded=0;orthogonalLoop=1;jettySize=auto;html=1;entryX=0.5;entryY=0;entryDx=0;entryDy=0;fontSize=17;" edge="1" parent="lncvHAz6eV97L1NIkKbv-1" source="aWIV9erqtSvaOrGdd5nY-6" target="aWIV9erqtSvaOrGdd5nY-19">
          <mxGeometry relative="1" as="geometry">
            <Array as="points">
              <mxPoint x="-1144.89" y="-1725" />
              <mxPoint x="-1104.89" y="-1725" />
            </Array>
          </mxGeometry>
        </mxCell>
        <mxCell id="aWIV9erqtSvaOrGdd5nY-3" style="edgeStyle=orthogonalEdgeStyle;rounded=0;orthogonalLoop=1;jettySize=auto;html=1;entryX=0.5;entryY=0;entryDx=0;entryDy=0;fontSize=17;" edge="1" parent="lncvHAz6eV97L1NIkKbv-1" source="aWIV9erqtSvaOrGdd5nY-6" target="aWIV9erqtSvaOrGdd5nY-27">
          <mxGeometry relative="1" as="geometry">
            <Array as="points">
              <mxPoint x="-1144.89" y="-1725" />
              <mxPoint x="-889.89" y="-1725" />
            </Array>
          </mxGeometry>
        </mxCell>
        <mxCell id="aWIV9erqtSvaOrGdd5nY-6" value="" style="rounded=0;whiteSpace=wrap;html=1;fillColor=#cce5ff;strokeColor=#36393d;fontSize=17;" vertex="1" parent="lncvHAz6eV97L1NIkKbv-1">
          <mxGeometry x="-1249.89" y="-2155" width="210" height="380" as="geometry" />
        </mxCell>
        <mxCell id="aWIV9erqtSvaOrGdd5nY-7" value="Kube-Api-Server" style="rounded=0;whiteSpace=wrap;html=1;fillColor=#647687;fontSize=17;strokeColor=#314354;fontColor=#ffffff;" vertex="1" parent="lncvHAz6eV97L1NIkKbv-1">
          <mxGeometry x="-1229.89" y="-2125" width="170" height="60" as="geometry" />
        </mxCell>
        <mxCell id="aWIV9erqtSvaOrGdd5nY-8" value="Controller" style="rounded=0;whiteSpace=wrap;html=1;fillColor=#647687;fontSize=17;strokeColor=#314354;fontColor=#ffffff;" vertex="1" parent="lncvHAz6eV97L1NIkKbv-1">
          <mxGeometry x="-1229.89" y="-2045" width="170" height="60" as="geometry" />
        </mxCell>
        <mxCell id="aWIV9erqtSvaOrGdd5nY-9" value="Scheduler" style="rounded=0;whiteSpace=wrap;html=1;fillColor=#647687;fontSize=17;strokeColor=#314354;fontColor=#ffffff;" vertex="1" parent="lncvHAz6eV97L1NIkKbv-1">
          <mxGeometry x="-1229.89" y="-1965" width="170" height="60" as="geometry" />
        </mxCell>
        <mxCell id="aWIV9erqtSvaOrGdd5nY-10" value="etcd" style="rounded=0;whiteSpace=wrap;html=1;fillColor=#647687;fontSize=17;strokeColor=#314354;fontColor=#ffffff;" vertex="1" parent="lncvHAz6eV97L1NIkKbv-1">
          <mxGeometry x="-1229.89" y="-1885" width="170" height="60" as="geometry" />
        </mxCell>
        <mxCell id="aWIV9erqtSvaOrGdd5nY-11" value="" style="rounded=0;whiteSpace=wrap;html=1;fontSize=17;fillColor=#dae8fc;strokeColor=#6c8ebf;" vertex="1" parent="lncvHAz6eV97L1NIkKbv-1">
          <mxGeometry x="-1389.89" y="-1680" width="170" height="164" as="geometry" />
        </mxCell>
        <mxCell id="aWIV9erqtSvaOrGdd5nY-12" value="" style="html=1;dashed=0;whitespace=wrap;fillColor=#2875E2;strokeColor=#ffffff;points=[[0.005,0.63,0],[0.1,0.2,0],[0.9,0.2,0],[0.5,0,0],[0.995,0.63,0],[0.72,0.99,0],[0.5,1,0],[0.28,0.99,0]];shape=mxgraph.kubernetes.icon;prIcon=kubelet;fontSize=17;" vertex="1" parent="lncvHAz6eV97L1NIkKbv-1">
          <mxGeometry x="-1269.89" y="-1560" width="50" height="48" as="geometry" />
        </mxCell>
        <mxCell id="aWIV9erqtSvaOrGdd5nY-13" value="" style="aspect=fixed;html=1;points=[];align=center;image;fontSize=12;image=img/lib/mscae/Docker.svg;fillColor=#7EA6E0;gradientColor=none;" vertex="1" parent="lncvHAz6eV97L1NIkKbv-1">
          <mxGeometry x="-1374.89" y="-1563.5" width="49.39" height="40.5" as="geometry" />
        </mxCell>
        <mxCell id="aWIV9erqtSvaOrGdd5nY-18" value="&lt;span style=&quot;background-color: rgb(205 , 162 , 190)&quot;&gt;Node-1&lt;/span&gt;" style="text;html=1;resizable=0;autosize=1;align=center;verticalAlign=middle;points=[];fillColor=none;strokeColor=none;rounded=0;fontSize=17;" vertex="1" parent="lncvHAz6eV97L1NIkKbv-1">
          <mxGeometry x="-1334.89" y="-1537" width="70" height="30" as="geometry" />
        </mxCell>
        <mxCell id="aWIV9erqtSvaOrGdd5nY-19" value="" style="rounded=0;whiteSpace=wrap;html=1;fontSize=17;fillColor=#dae8fc;strokeColor=#6c8ebf;" vertex="1" parent="lncvHAz6eV97L1NIkKbv-1">
          <mxGeometry x="-1189.89" y="-1680" width="170" height="164" as="geometry" />
        </mxCell>
        <mxCell id="aWIV9erqtSvaOrGdd5nY-20" value="" style="html=1;dashed=0;whitespace=wrap;fillColor=#2875E2;strokeColor=#ffffff;points=[[0.005,0.63,0],[0.1,0.2,0],[0.9,0.2,0],[0.5,0,0],[0.995,0.63,0],[0.72,0.99,0],[0.5,1,0],[0.28,0.99,0]];shape=mxgraph.kubernetes.icon;prIcon=kubelet;fontSize=17;" vertex="1" parent="lncvHAz6eV97L1NIkKbv-1">
          <mxGeometry x="-1079.89" y="-1571" width="50" height="48" as="geometry" />
        </mxCell>
        <mxCell id="aWIV9erqtSvaOrGdd5nY-21" value="" style="aspect=fixed;html=1;points=[];align=center;image;fontSize=12;image=img/lib/mscae/Docker.svg;fillColor=#7EA6E0;gradientColor=none;" vertex="1" parent="lncvHAz6eV97L1NIkKbv-1">
          <mxGeometry x="-1184.89" y="-1557" width="50" height="41" as="geometry" />
        </mxCell>
        <mxCell id="aWIV9erqtSvaOrGdd5nY-26" value="&lt;span style=&quot;background-color: rgb(205 , 162 , 190)&quot;&gt;Node-2&lt;/span&gt;" style="text;html=1;resizable=0;autosize=1;align=center;verticalAlign=middle;points=[];fillColor=none;strokeColor=none;rounded=0;fontSize=17;" vertex="1" parent="lncvHAz6eV97L1NIkKbv-1">
          <mxGeometry x="-1139.89" y="-1546" width="70" height="30" as="geometry" />
        </mxCell>
        <mxCell id="aWIV9erqtSvaOrGdd5nY-27" value="" style="rounded=0;whiteSpace=wrap;html=1;fontSize=17;fillColor=#dae8fc;strokeColor=#6c8ebf;" vertex="1" parent="lncvHAz6eV97L1NIkKbv-1">
          <mxGeometry x="-969.89" y="-1685" width="160" height="169" as="geometry" />
        </mxCell>
        <mxCell id="aWIV9erqtSvaOrGdd5nY-28" value="" style="html=1;dashed=0;whitespace=wrap;fillColor=#2875E2;strokeColor=#ffffff;points=[[0.005,0.63,0],[0.1,0.2,0],[0.9,0.2,0],[0.5,0,0],[0.995,0.63,0],[0.72,0.99,0],[0.5,1,0],[0.28,0.99,0]];shape=mxgraph.kubernetes.icon;prIcon=kubelet;fontSize=17;" vertex="1" parent="lncvHAz6eV97L1NIkKbv-1">
          <mxGeometry x="-859.89" y="-1571" width="50" height="48" as="geometry" />
        </mxCell>
        <mxCell id="aWIV9erqtSvaOrGdd5nY-29" value="" style="aspect=fixed;html=1;points=[];align=center;image;fontSize=12;image=img/lib/mscae/Docker.svg;fillColor=#7EA6E0;gradientColor=none;" vertex="1" parent="lncvHAz6eV97L1NIkKbv-1">
          <mxGeometry x="-974.89" y="-1571" width="50" height="41" as="geometry" />
        </mxCell>
        <mxCell id="aWIV9erqtSvaOrGdd5nY-33" value="&lt;span style=&quot;background-color: rgb(205 , 162 , 190)&quot;&gt;Node-3&lt;/span&gt;" style="text;html=1;resizable=0;autosize=1;align=center;verticalAlign=middle;points=[];fillColor=none;strokeColor=none;rounded=0;fontSize=17;" vertex="1" parent="lncvHAz6eV97L1NIkKbv-1">
          <mxGeometry x="-924.89" y="-1542" width="70" height="30" as="geometry" />
        </mxCell>
        <mxCell id="aWIV9erqtSvaOrGdd5nY-45" value="&lt;span style=&quot;background-color: rgb(255 , 255 , 255)&quot;&gt;Master-1&lt;/span&gt;" style="text;html=1;resizable=0;autosize=1;align=center;verticalAlign=middle;points=[];fillColor=none;strokeColor=none;rounded=0;fontSize=17;" vertex="1" parent="lncvHAz6eV97L1NIkKbv-1">
          <mxGeometry x="-1184.89" y="-1805" width="80" height="30" as="geometry" />
        </mxCell>
        <mxCell id="aWIV9erqtSvaOrGdd5nY-62" value="" style="rounded=0;whiteSpace=wrap;html=1;fillColor=#EAEDED;fontSize=22;fontColor=#FFFFFF;strokeColor=none;labelBackgroundColor=none;" vertex="1" parent="lncvHAz6eV97L1NIkKbv-1">
          <mxGeometry x="-730" y="-2180" width="539" height="370" as="geometry" />
        </mxCell>
        <mxCell id="aWIV9erqtSvaOrGdd5nY-63" value="1" style="rounded=1;whiteSpace=wrap;html=1;fillColor=#007CBD;strokeColor=none;fontColor=#FFFFFF;fontStyle=1;fontSize=22;labelBackgroundColor=none;" vertex="1" parent="lncvHAz6eV97L1NIkKbv-1">
          <mxGeometry x="-712" y="-2168" width="40" height="38" as="geometry" />
        </mxCell>
        <mxCell id="aWIV9erqtSvaOrGdd5nY-64" value="2" style="rounded=1;whiteSpace=wrap;html=1;fillColor=#007CBD;strokeColor=none;fontColor=#FFFFFF;fontStyle=1;fontSize=22;labelBackgroundColor=none;" vertex="1" parent="lncvHAz6eV97L1NIkKbv-1">
          <mxGeometry x="-712" y="-2083.5" width="40" height="38" as="geometry" />
        </mxCell>
        <mxCell id="aWIV9erqtSvaOrGdd5nY-65" value="3" style="rounded=1;whiteSpace=wrap;html=1;fillColor=#007CBD;strokeColor=none;fontColor=#FFFFFF;fontStyle=1;fontSize=22;labelBackgroundColor=none;" vertex="1" parent="lncvHAz6eV97L1NIkKbv-1">
          <mxGeometry x="-711" y="-1997.5" width="40" height="38" as="geometry" />
        </mxCell>
        <mxCell id="aWIV9erqtSvaOrGdd5nY-66" value="4" style="rounded=1;whiteSpace=wrap;html=1;fillColor=#007CBD;strokeColor=none;fontColor=#FFFFFF;fontStyle=1;fontSize=22;labelBackgroundColor=none;" vertex="1" parent="lncvHAz6eV97L1NIkKbv-1">
          <mxGeometry x="-713.5" y="-1919" width="40" height="38" as="geometry" />
        </mxCell>
        <mxCell id="aWIV9erqtSvaOrGdd5nY-70" value="&lt;span style=&quot;font-size: 17px ; text-align: center&quot;&gt;&lt;font color=&quot;#1a1a1a&quot;&gt;&lt;u&gt;Kube-Api-Server:&lt;/u&gt;&amp;nbsp; This is cluster gateway and act as a gatekeeper for authentication .&amp;nbsp; This is the only one entry point for cluster&amp;nbsp;&lt;/font&gt;&lt;/span&gt;" style="text;html=1;align=left;verticalAlign=top;spacingTop=-4;fontSize=14;labelBackgroundColor=none;whiteSpace=wrap;" vertex="1" parent="lncvHAz6eV97L1NIkKbv-1">
          <mxGeometry x="-648.5" y="-2168" width="449" height="69.5" as="geometry" />
        </mxCell>
        <mxCell id="aWIV9erqtSvaOrGdd5nY-71" value="&lt;span style=&quot;text-align: center&quot;&gt;&lt;font color=&quot;#1a1a1a&quot;&gt;&lt;u style=&quot;font-size: 17px&quot;&gt;Controller Manager:-&lt;/u&gt;&lt;span style=&quot;font-size: 17px&quot;&gt;&amp;nbsp;&lt;/span&gt;&lt;font style=&quot;font-size: 14px&quot;&gt;This will detects cluster state changes. keep on monitor changes of pods in nodes . if any pod went fault state then notify scheduler about change&amp;nbsp;&lt;/font&gt;&lt;/font&gt;&lt;/span&gt;" style="text;html=1;align=left;verticalAlign=top;spacingTop=-4;fontSize=14;labelBackgroundColor=none;whiteSpace=wrap;" vertex="1" parent="lncvHAz6eV97L1NIkKbv-1">
          <mxGeometry x="-651.5" y="-2083.5" width="450" height="64" as="geometry" />
        </mxCell>
        <mxCell id="aWIV9erqtSvaOrGdd5nY-72" value="&lt;u&gt;&lt;font style=&quot;font-size: 17px&quot;&gt;Scheduler:-&lt;/font&gt;&lt;/u&gt;&amp;nbsp;This&amp;nbsp; just decides on which node new pod should be scheduled&amp;nbsp; based resource usage in node." style="text;html=1;align=left;verticalAlign=top;spacingTop=-4;fontSize=14;labelBackgroundColor=none;whiteSpace=wrap;" vertex="1" parent="lncvHAz6eV97L1NIkKbv-1">
          <mxGeometry x="-649.5" y="-1996" width="450" height="117" as="geometry" />
        </mxCell>
        <mxCell id="aWIV9erqtSvaOrGdd5nY-73" value="&lt;font style=&quot;font-size: 17px&quot;&gt;&lt;u&gt;etcd:-&lt;/u&gt;&amp;nbsp;&lt;/font&gt; &amp;nbsp;This is internal storage&amp;nbsp;&lt;br&gt;&lt;ul&gt;&lt;li&gt;cluster changes get stored in the key value store&amp;nbsp;&lt;/li&gt;&lt;li&gt;Manages Secrets and configmap&lt;/li&gt;&lt;li&gt;called it as&amp;nbsp; cluster-brain&lt;/li&gt;&lt;/ul&gt;" style="text;html=1;align=left;verticalAlign=top;spacingTop=-4;fontSize=14;labelBackgroundColor=none;whiteSpace=wrap;" vertex="1" parent="lncvHAz6eV97L1NIkKbv-1">
          <mxGeometry x="-649.5" y="-1923" width="450" height="121" as="geometry" />
        </mxCell>
        <mxCell id="aWIV9erqtSvaOrGdd5nY-77" style="edgeStyle=orthogonalEdgeStyle;rounded=0;orthogonalLoop=1;jettySize=auto;html=1;entryX=0;entryY=0.5;entryDx=0;entryDy=0;" edge="1" parent="lncvHAz6eV97L1NIkKbv-1" target="aWIV9erqtSvaOrGdd5nY-7">
          <mxGeometry relative="1" as="geometry">
            <mxPoint x="-1469.89" y="-2105" as="targetPoint" />
            <Array as="points">
              <mxPoint x="-1499.89" y="-2095" />
              <mxPoint x="-1499.89" y="-2095" />
            </Array>
            <mxPoint x="-1479.996316489388" y="-2095" as="sourcePoint" />
          </mxGeometry>
        </mxCell>
        <mxCell id="aWIV9erqtSvaOrGdd5nY-78" value="&lt;font style=&quot;font-size: 14px&quot;&gt;Apply Changes \Query&lt;/font&gt;" style="edgeLabel;html=1;align=center;verticalAlign=middle;resizable=0;points=[];" vertex="1" connectable="0" parent="aWIV9erqtSvaOrGdd5nY-77">
          <mxGeometry x="-0.2553" y="-1" relative="1" as="geometry">
            <mxPoint as="offset" />
          </mxGeometry>
        </mxCell>
        <mxCell id="aWIV9erqtSvaOrGdd5nY-79" value="Client" style="ellipse;whiteSpace=wrap;html=1;" vertex="1" parent="lncvHAz6eV97L1NIkKbv-1">
          <mxGeometry x="-1670" y="-2135" width="170" height="80" as="geometry" />
        </mxCell>
        <mxCell id="aWIV9erqtSvaOrGdd5nY-80" value="1" style="rounded=1;whiteSpace=wrap;html=1;fillColor=#007CBD;strokeColor=none;fontColor=#FFFFFF;fontStyle=1;fontSize=22;labelBackgroundColor=none;" vertex="1" parent="lncvHAz6eV97L1NIkKbv-1">
          <mxGeometry x="-1239.89" y="-2091.5" width="30" height="26.5" as="geometry" />
        </mxCell>
        <mxCell id="aWIV9erqtSvaOrGdd5nY-81" value="2" style="rounded=1;whiteSpace=wrap;html=1;fillColor=#007CBD;strokeColor=none;fontColor=#FFFFFF;fontStyle=1;fontSize=22;labelBackgroundColor=none;" vertex="1" parent="lncvHAz6eV97L1NIkKbv-1">
          <mxGeometry x="-1239.89" y="-2028.25" width="30" height="26.5" as="geometry" />
        </mxCell>
        <mxCell id="aWIV9erqtSvaOrGdd5nY-82" value="3" style="rounded=1;whiteSpace=wrap;html=1;fillColor=#007CBD;strokeColor=none;fontColor=#FFFFFF;fontStyle=1;fontSize=22;labelBackgroundColor=none;" vertex="1" parent="lncvHAz6eV97L1NIkKbv-1">
          <mxGeometry x="-1239.89" y="-1945" width="30" height="26.5" as="geometry" />
        </mxCell>
        <mxCell id="aWIV9erqtSvaOrGdd5nY-83" value="4" style="rounded=1;whiteSpace=wrap;html=1;fillColor=#007CBD;strokeColor=none;fontColor=#FFFFFF;fontStyle=1;fontSize=22;labelBackgroundColor=none;" vertex="1" parent="lncvHAz6eV97L1NIkKbv-1">
          <mxGeometry x="-1239.89" y="-1872.25" width="30" height="26.5" as="geometry" />
        </mxCell>
        <mxCell id="aWIV9erqtSvaOrGdd5nY-86" value="" style="html=1;dashed=0;whitespace=wrap;fillColor=#2875E2;strokeColor=#ffffff;points=[[0.005,0.63,0],[0.1,0.2,0],[0.9,0.2,0],[0.5,0,0],[0.995,0.63,0],[0.72,0.99,0],[0.5,1,0],[0.28,0.99,0]];shape=mxgraph.kubernetes.icon;prIcon=k_proxy" vertex="1" parent="lncvHAz6eV97L1NIkKbv-1">
          <mxGeometry x="-1324.89" y="-1583" width="50" height="48" as="geometry" />
        </mxCell>
        <mxCell id="aWIV9erqtSvaOrGdd5nY-88" value="" style="html=1;dashed=0;whitespace=wrap;fillColor=#2875E2;strokeColor=#ffffff;points=[[0.005,0.63,0],[0.1,0.2,0],[0.9,0.2,0],[0.5,0,0],[0.995,0.63,0],[0.72,0.99,0],[0.5,1,0],[0.28,0.99,0]];shape=mxgraph.kubernetes.icon;prIcon=k_proxy" vertex="1" parent="lncvHAz6eV97L1NIkKbv-1">
          <mxGeometry x="-1134.89" y="-1594" width="50" height="48" as="geometry" />
        </mxCell>
        <mxCell id="aWIV9erqtSvaOrGdd5nY-89" value="" style="html=1;dashed=0;whitespace=wrap;fillColor=#2875E2;strokeColor=#ffffff;points=[[0.005,0.63,0],[0.1,0.2,0],[0.9,0.2,0],[0.5,0,0],[0.995,0.63,0],[0.72,0.99,0],[0.5,1,0],[0.28,0.99,0]];shape=mxgraph.kubernetes.icon;prIcon=k_proxy" vertex="1" parent="lncvHAz6eV97L1NIkKbv-1">
          <mxGeometry x="-909.89" y="-1585" width="50" height="48" as="geometry" />
        </mxCell>
      </root>
    </mxGraphModel>
  </diagram>
  <diagram id="jksgYplZyOMByE_GCAdY" name="K8s architecture">
    <mxGraphModel dx="3346" dy="3287" grid="1" gridSize="10" guides="1" tooltips="1" connect="1" arrows="1" fold="1" page="1" pageScale="1" pageWidth="850" pageHeight="1100" math="0" shadow="0">
      <root>
        <mxCell id="o5c_36QuPgtL-PP_89I7-0" />
        <mxCell id="o5c_36QuPgtL-PP_89I7-1" parent="o5c_36QuPgtL-PP_89I7-0" />
        <mxCell id="GIHWWCE4HEEKvSoa5X5y-140" value="" style="rounded=0;whiteSpace=wrap;html=1;fontSize=17;" parent="o5c_36QuPgtL-PP_89I7-1" vertex="1">
          <mxGeometry x="-1380" y="-2150" width="1090" height="880" as="geometry" />
        </mxCell>
        <mxCell id="GIHWWCE4HEEKvSoa5X5y-129" style="edgeStyle=orthogonalEdgeStyle;rounded=0;orthogonalLoop=1;jettySize=auto;html=1;entryX=0.5;entryY=0;entryDx=0;entryDy=0;fontSize=17;" parent="o5c_36QuPgtL-PP_89I7-1" source="EKfXJ3wbXTmqofp4eIew-1" target="GIHWWCE4HEEKvSoa5X5y-42" edge="1">
          <mxGeometry relative="1" as="geometry" />
        </mxCell>
        <mxCell id="GIHWWCE4HEEKvSoa5X5y-132" style="edgeStyle=orthogonalEdgeStyle;rounded=0;orthogonalLoop=1;jettySize=auto;html=1;entryX=0.5;entryY=0;entryDx=0;entryDy=0;fontSize=17;" parent="o5c_36QuPgtL-PP_89I7-1" source="EKfXJ3wbXTmqofp4eIew-1" target="GIHWWCE4HEEKvSoa5X5y-52" edge="1">
          <mxGeometry relative="1" as="geometry">
            <Array as="points">
              <mxPoint x="-1175" y="-1629" />
              <mxPoint x="-1005" y="-1629" />
            </Array>
          </mxGeometry>
        </mxCell>
        <mxCell id="GIHWWCE4HEEKvSoa5X5y-134" style="edgeStyle=orthogonalEdgeStyle;rounded=0;orthogonalLoop=1;jettySize=auto;html=1;entryX=0.5;entryY=0;entryDx=0;entryDy=0;fontSize=17;" parent="o5c_36QuPgtL-PP_89I7-1" source="EKfXJ3wbXTmqofp4eIew-1" target="GIHWWCE4HEEKvSoa5X5y-92" edge="1">
          <mxGeometry relative="1" as="geometry">
            <Array as="points">
              <mxPoint x="-1175" y="-1629" />
              <mxPoint x="-790" y="-1629" />
            </Array>
          </mxGeometry>
        </mxCell>
        <mxCell id="GIHWWCE4HEEKvSoa5X5y-135" style="edgeStyle=orthogonalEdgeStyle;rounded=0;orthogonalLoop=1;jettySize=auto;html=1;entryX=0.5;entryY=0;entryDx=0;entryDy=0;fontSize=17;" parent="o5c_36QuPgtL-PP_89I7-1" source="EKfXJ3wbXTmqofp4eIew-1" target="GIHWWCE4HEEKvSoa5X5y-100" edge="1">
          <mxGeometry relative="1" as="geometry">
            <Array as="points">
              <mxPoint x="-1175" y="-1629" />
              <mxPoint x="-590" y="-1629" />
            </Array>
          </mxGeometry>
        </mxCell>
        <mxCell id="GIHWWCE4HEEKvSoa5X5y-136" style="edgeStyle=orthogonalEdgeStyle;rounded=0;orthogonalLoop=1;jettySize=auto;html=1;entryX=0.5;entryY=0;entryDx=0;entryDy=0;fontSize=17;" parent="o5c_36QuPgtL-PP_89I7-1" source="EKfXJ3wbXTmqofp4eIew-1" target="GIHWWCE4HEEKvSoa5X5y-108" edge="1">
          <mxGeometry relative="1" as="geometry">
            <Array as="points">
              <mxPoint x="-1175" y="-1629" />
              <mxPoint x="-390" y="-1629" />
            </Array>
          </mxGeometry>
        </mxCell>
        <mxCell id="EKfXJ3wbXTmqofp4eIew-1" value="" style="rounded=0;whiteSpace=wrap;html=1;fillColor=#cce5ff;strokeColor=#36393d;fontSize=17;" parent="o5c_36QuPgtL-PP_89I7-1" vertex="1">
          <mxGeometry x="-1280" y="-2059" width="210" height="380" as="geometry" />
        </mxCell>
        <mxCell id="EKfXJ3wbXTmqofp4eIew-2" value="Kube-Api-Server" style="rounded=0;whiteSpace=wrap;html=1;fillColor=#647687;fontSize=17;strokeColor=#314354;fontColor=#ffffff;" parent="o5c_36QuPgtL-PP_89I7-1" vertex="1">
          <mxGeometry x="-1260" y="-2029" width="170" height="60" as="geometry" />
        </mxCell>
        <mxCell id="EKfXJ3wbXTmqofp4eIew-3" value="Controller" style="rounded=0;whiteSpace=wrap;html=1;fillColor=#647687;fontSize=17;strokeColor=#314354;fontColor=#ffffff;" parent="o5c_36QuPgtL-PP_89I7-1" vertex="1">
          <mxGeometry x="-1260" y="-1949" width="170" height="60" as="geometry" />
        </mxCell>
        <mxCell id="EKfXJ3wbXTmqofp4eIew-4" value="Scheduler" style="rounded=0;whiteSpace=wrap;html=1;fillColor=#647687;fontSize=17;strokeColor=#314354;fontColor=#ffffff;" parent="o5c_36QuPgtL-PP_89I7-1" vertex="1">
          <mxGeometry x="-1260" y="-1869" width="170" height="60" as="geometry" />
        </mxCell>
        <mxCell id="EKfXJ3wbXTmqofp4eIew-5" value="etcd" style="rounded=0;whiteSpace=wrap;html=1;fillColor=#647687;fontSize=17;strokeColor=#314354;fontColor=#ffffff;" parent="o5c_36QuPgtL-PP_89I7-1" vertex="1">
          <mxGeometry x="-1260" y="-1789" width="170" height="60" as="geometry" />
        </mxCell>
        <mxCell id="GIHWWCE4HEEKvSoa5X5y-42" value="" style="rounded=0;whiteSpace=wrap;html=1;fontSize=17;fillColor=#dae8fc;strokeColor=#6c8ebf;" parent="o5c_36QuPgtL-PP_89I7-1" vertex="1">
          <mxGeometry x="-1300" y="-1579" width="170" height="280" as="geometry" />
        </mxCell>
        <mxCell id="GIHWWCE4HEEKvSoa5X5y-44" value="" style="html=1;dashed=0;whitespace=wrap;fillColor=#2875E2;strokeColor=#ffffff;points=[[0.005,0.63,0],[0.1,0.2,0],[0.9,0.2,0],[0.5,0,0],[0.995,0.63,0],[0.72,0.99,0],[0.5,1,0],[0.28,0.99,0]];shape=mxgraph.kubernetes.icon;prIcon=kubelet;fontSize=17;" parent="o5c_36QuPgtL-PP_89I7-1" vertex="1">
          <mxGeometry x="-1185" y="-1347" width="50" height="48" as="geometry" />
        </mxCell>
        <mxCell id="GIHWWCE4HEEKvSoa5X5y-45" value="" style="aspect=fixed;html=1;points=[];align=center;image;fontSize=12;image=img/lib/mscae/Docker.svg;fillColor=#7EA6E0;gradientColor=none;" parent="o5c_36QuPgtL-PP_89I7-1" vertex="1">
          <mxGeometry x="-1290" y="-1350.5" width="50" height="41" as="geometry" />
        </mxCell>
        <mxCell id="GIHWWCE4HEEKvSoa5X5y-46" value="" style="html=1;dashed=0;whitespace=wrap;fillColor=#2875E2;strokeColor=#ffffff;points=[[0.005,0.63,0],[0.1,0.2,0],[0.9,0.2,0],[0.5,0,0],[0.995,0.63,0],[0.72,0.99,0],[0.5,1,0],[0.28,0.99,0]];shape=mxgraph.kubernetes.icon;prIcon=pod;fontSize=17;" parent="o5c_36QuPgtL-PP_89I7-1" vertex="1">
          <mxGeometry x="-1260" y="-1547" width="50" height="48" as="geometry" />
        </mxCell>
        <mxCell id="GIHWWCE4HEEKvSoa5X5y-48" value="" style="html=1;dashed=0;whitespace=wrap;fillColor=#2875E2;strokeColor=#ffffff;points=[[0.005,0.63,0],[0.1,0.2,0],[0.9,0.2,0],[0.5,0,0],[0.995,0.63,0],[0.72,0.99,0],[0.5,1,0],[0.28,0.99,0]];shape=mxgraph.kubernetes.icon;prIcon=pod;fontSize=17;" parent="o5c_36QuPgtL-PP_89I7-1" vertex="1">
          <mxGeometry x="-1230" y="-1549" width="150" height="48" as="geometry" />
        </mxCell>
        <mxCell id="GIHWWCE4HEEKvSoa5X5y-49" value="" style="html=1;dashed=0;whitespace=wrap;fillColor=#2875E2;strokeColor=#ffffff;points=[[0.005,0.63,0],[0.1,0.2,0],[0.9,0.2,0],[0.5,0,0],[0.995,0.63,0],[0.72,0.99,0],[0.5,1,0],[0.28,0.99,0]];shape=mxgraph.kubernetes.icon;prIcon=pod;fontSize=17;" parent="o5c_36QuPgtL-PP_89I7-1" vertex="1">
          <mxGeometry x="-1220" y="-1453" width="50" height="48" as="geometry" />
        </mxCell>
        <mxCell id="GIHWWCE4HEEKvSoa5X5y-50" value="" style="html=1;dashed=0;whitespace=wrap;fillColor=#2875E2;strokeColor=#ffffff;points=[[0.005,0.63,0],[0.1,0.2,0],[0.9,0.2,0],[0.5,0,0],[0.995,0.63,0],[0.72,0.99,0],[0.5,1,0],[0.28,0.99,0]];shape=mxgraph.kubernetes.icon;prIcon=pod;fontSize=17;direction=west;" parent="o5c_36QuPgtL-PP_89I7-1" vertex="1">
          <mxGeometry x="-1240" y="-1501" width="50" height="48" as="geometry" />
        </mxCell>
        <mxCell id="GIHWWCE4HEEKvSoa5X5y-51" value="&lt;span style=&quot;background-color: rgb(205 , 162 , 190)&quot;&gt;Node-1&lt;/span&gt;" style="text;html=1;resizable=0;autosize=1;align=center;verticalAlign=middle;points=[];fillColor=none;strokeColor=none;rounded=0;fontSize=17;" parent="o5c_36QuPgtL-PP_89I7-1" vertex="1">
          <mxGeometry x="-1250" y="-1324" width="70" height="30" as="geometry" />
        </mxCell>
        <mxCell id="GIHWWCE4HEEKvSoa5X5y-52" value="" style="rounded=0;whiteSpace=wrap;html=1;fontSize=17;fillColor=#dae8fc;strokeColor=#6c8ebf;" parent="o5c_36QuPgtL-PP_89I7-1" vertex="1">
          <mxGeometry x="-1090" y="-1574" width="170" height="280" as="geometry" />
        </mxCell>
        <mxCell id="GIHWWCE4HEEKvSoa5X5y-53" value="" style="html=1;dashed=0;whitespace=wrap;fillColor=#2875E2;strokeColor=#ffffff;points=[[0.005,0.63,0],[0.1,0.2,0],[0.9,0.2,0],[0.5,0,0],[0.995,0.63,0],[0.72,0.99,0],[0.5,1,0],[0.28,0.99,0]];shape=mxgraph.kubernetes.icon;prIcon=kubelet;fontSize=17;" parent="o5c_36QuPgtL-PP_89I7-1" vertex="1">
          <mxGeometry x="-970" y="-1342" width="50" height="48" as="geometry" />
        </mxCell>
        <mxCell id="GIHWWCE4HEEKvSoa5X5y-54" value="" style="aspect=fixed;html=1;points=[];align=center;image;fontSize=12;image=img/lib/mscae/Docker.svg;fillColor=#7EA6E0;gradientColor=none;" parent="o5c_36QuPgtL-PP_89I7-1" vertex="1">
          <mxGeometry x="-1090" y="-1343.5" width="50" height="41" as="geometry" />
        </mxCell>
        <mxCell id="GIHWWCE4HEEKvSoa5X5y-55" value="" style="html=1;dashed=0;whitespace=wrap;fillColor=#2875E2;strokeColor=#ffffff;points=[[0.005,0.63,0],[0.1,0.2,0],[0.9,0.2,0],[0.5,0,0],[0.995,0.63,0],[0.72,0.99,0],[0.5,1,0],[0.28,0.99,0]];shape=mxgraph.kubernetes.icon;prIcon=pod;fontSize=17;" parent="o5c_36QuPgtL-PP_89I7-1" vertex="1">
          <mxGeometry x="-1060" y="-1547" width="50" height="48" as="geometry" />
        </mxCell>
        <mxCell id="GIHWWCE4HEEKvSoa5X5y-56" value="" style="html=1;dashed=0;whitespace=wrap;fillColor=#2875E2;strokeColor=#ffffff;points=[[0.005,0.63,0],[0.1,0.2,0],[0.9,0.2,0],[0.5,0,0],[0.995,0.63,0],[0.72,0.99,0],[0.5,1,0],[0.28,0.99,0]];shape=mxgraph.kubernetes.icon;prIcon=pod;fontSize=17;" parent="o5c_36QuPgtL-PP_89I7-1" vertex="1">
          <mxGeometry x="-1040" y="-1547" width="150" height="48" as="geometry" />
        </mxCell>
        <mxCell id="GIHWWCE4HEEKvSoa5X5y-57" value="" style="html=1;dashed=0;whitespace=wrap;fillColor=#2875E2;strokeColor=#ffffff;points=[[0.005,0.63,0],[0.1,0.2,0],[0.9,0.2,0],[0.5,0,0],[0.995,0.63,0],[0.72,0.99,0],[0.5,1,0],[0.28,0.99,0]];shape=mxgraph.kubernetes.icon;prIcon=pod;fontSize=17;" parent="o5c_36QuPgtL-PP_89I7-1" vertex="1">
          <mxGeometry x="-1020" y="-1453" width="50" height="48" as="geometry" />
        </mxCell>
        <mxCell id="GIHWWCE4HEEKvSoa5X5y-58" value="" style="html=1;dashed=0;whitespace=wrap;fillColor=#2875E2;strokeColor=#ffffff;points=[[0.005,0.63,0],[0.1,0.2,0],[0.9,0.2,0],[0.5,0,0],[0.995,0.63,0],[0.72,0.99,0],[0.5,1,0],[0.28,0.99,0]];shape=mxgraph.kubernetes.icon;prIcon=pod;fontSize=17;direction=west;" parent="o5c_36QuPgtL-PP_89I7-1" vertex="1">
          <mxGeometry x="-1040" y="-1499" width="50" height="58" as="geometry" />
        </mxCell>
        <mxCell id="GIHWWCE4HEEKvSoa5X5y-59" value="&lt;span style=&quot;background-color: rgb(205 , 162 , 190)&quot;&gt;Node-2&lt;/span&gt;" style="text;html=1;resizable=0;autosize=1;align=center;verticalAlign=middle;points=[];fillColor=none;strokeColor=none;rounded=0;fontSize=17;" parent="o5c_36QuPgtL-PP_89I7-1" vertex="1">
          <mxGeometry x="-1050" y="-1324" width="70" height="30" as="geometry" />
        </mxCell>
        <mxCell id="GIHWWCE4HEEKvSoa5X5y-92" value="" style="rounded=0;whiteSpace=wrap;html=1;fontSize=17;fillColor=#dae8fc;strokeColor=#6c8ebf;" parent="o5c_36QuPgtL-PP_89I7-1" vertex="1">
          <mxGeometry x="-870" y="-1579" width="160" height="280" as="geometry" />
        </mxCell>
        <mxCell id="GIHWWCE4HEEKvSoa5X5y-93" value="" style="html=1;dashed=0;whitespace=wrap;fillColor=#2875E2;strokeColor=#ffffff;points=[[0.005,0.63,0],[0.1,0.2,0],[0.9,0.2,0],[0.5,0,0],[0.995,0.63,0],[0.72,0.99,0],[0.5,1,0],[0.28,0.99,0]];shape=mxgraph.kubernetes.icon;prIcon=kubelet;fontSize=17;" parent="o5c_36QuPgtL-PP_89I7-1" vertex="1">
          <mxGeometry x="-760" y="-1350.5" width="50" height="48" as="geometry" />
        </mxCell>
        <mxCell id="GIHWWCE4HEEKvSoa5X5y-94" value="" style="aspect=fixed;html=1;points=[];align=center;image;fontSize=12;image=img/lib/mscae/Docker.svg;fillColor=#7EA6E0;gradientColor=none;" parent="o5c_36QuPgtL-PP_89I7-1" vertex="1">
          <mxGeometry x="-870" y="-1347" width="50" height="41" as="geometry" />
        </mxCell>
        <mxCell id="GIHWWCE4HEEKvSoa5X5y-95" value="" style="html=1;dashed=0;whitespace=wrap;fillColor=#2875E2;strokeColor=#ffffff;points=[[0.005,0.63,0],[0.1,0.2,0],[0.9,0.2,0],[0.5,0,0],[0.995,0.63,0],[0.72,0.99,0],[0.5,1,0],[0.28,0.99,0]];shape=mxgraph.kubernetes.icon;prIcon=pod;fontSize=17;" parent="o5c_36QuPgtL-PP_89I7-1" vertex="1">
          <mxGeometry x="-830" y="-1547" width="50" height="48" as="geometry" />
        </mxCell>
        <mxCell id="GIHWWCE4HEEKvSoa5X5y-96" value="" style="html=1;dashed=0;whitespace=wrap;fillColor=#2875E2;strokeColor=#ffffff;points=[[0.005,0.63,0],[0.1,0.2,0],[0.9,0.2,0],[0.5,0,0],[0.995,0.63,0],[0.72,0.99,0],[0.5,1,0],[0.28,0.99,0]];shape=mxgraph.kubernetes.icon;prIcon=pod;fontSize=17;" parent="o5c_36QuPgtL-PP_89I7-1" vertex="1">
          <mxGeometry x="-890" y="-1494" width="150" height="48" as="geometry" />
        </mxCell>
        <mxCell id="GIHWWCE4HEEKvSoa5X5y-97" value="" style="html=1;dashed=0;whitespace=wrap;fillColor=#2875E2;strokeColor=#ffffff;points=[[0.005,0.63,0],[0.1,0.2,0],[0.9,0.2,0],[0.5,0,0],[0.995,0.63,0],[0.72,0.99,0],[0.5,1,0],[0.28,0.99,0]];shape=mxgraph.kubernetes.icon;prIcon=pod;fontSize=17;" parent="o5c_36QuPgtL-PP_89I7-1" vertex="1">
          <mxGeometry x="-790" y="-1453" width="50" height="48" as="geometry" />
        </mxCell>
        <mxCell id="GIHWWCE4HEEKvSoa5X5y-99" value="&lt;span style=&quot;background-color: rgb(205 , 162 , 190)&quot;&gt;Node-3&lt;/span&gt;" style="text;html=1;resizable=0;autosize=1;align=center;verticalAlign=middle;points=[];fillColor=none;strokeColor=none;rounded=0;fontSize=17;" parent="o5c_36QuPgtL-PP_89I7-1" vertex="1">
          <mxGeometry x="-820" y="-1324" width="70" height="30" as="geometry" />
        </mxCell>
        <mxCell id="GIHWWCE4HEEKvSoa5X5y-100" value="" style="rounded=0;whiteSpace=wrap;html=1;fontSize=17;fillColor=#dae8fc;strokeColor=#6c8ebf;" parent="o5c_36QuPgtL-PP_89I7-1" vertex="1">
          <mxGeometry x="-670" y="-1579" width="160" height="280" as="geometry" />
        </mxCell>
        <mxCell id="GIHWWCE4HEEKvSoa5X5y-101" value="" style="html=1;dashed=0;whitespace=wrap;fillColor=#2875E2;strokeColor=#ffffff;points=[[0.005,0.63,0],[0.1,0.2,0],[0.9,0.2,0],[0.5,0,0],[0.995,0.63,0],[0.72,0.99,0],[0.5,1,0],[0.28,0.99,0]];shape=mxgraph.kubernetes.icon;prIcon=kubelet;fontSize=17;" parent="o5c_36QuPgtL-PP_89I7-1" vertex="1">
          <mxGeometry x="-560" y="-1347" width="50" height="48" as="geometry" />
        </mxCell>
        <mxCell id="GIHWWCE4HEEKvSoa5X5y-102" value="" style="aspect=fixed;html=1;points=[];align=center;image;fontSize=12;image=img/lib/mscae/Docker.svg;fillColor=#7EA6E0;gradientColor=none;" parent="o5c_36QuPgtL-PP_89I7-1" vertex="1">
          <mxGeometry x="-670" y="-1343.5" width="50" height="41" as="geometry" />
        </mxCell>
        <mxCell id="GIHWWCE4HEEKvSoa5X5y-103" value="" style="html=1;dashed=0;whitespace=wrap;fillColor=#2875E2;strokeColor=#ffffff;points=[[0.005,0.63,0],[0.1,0.2,0],[0.9,0.2,0],[0.5,0,0],[0.995,0.63,0],[0.72,0.99,0],[0.5,1,0],[0.28,0.99,0]];shape=mxgraph.kubernetes.icon;prIcon=pod;fontSize=17;" parent="o5c_36QuPgtL-PP_89I7-1" vertex="1">
          <mxGeometry x="-630" y="-1547" width="50" height="48" as="geometry" />
        </mxCell>
        <mxCell id="GIHWWCE4HEEKvSoa5X5y-105" value="" style="html=1;dashed=0;whitespace=wrap;fillColor=#2875E2;strokeColor=#ffffff;points=[[0.005,0.63,0],[0.1,0.2,0],[0.9,0.2,0],[0.5,0,0],[0.995,0.63,0],[0.72,0.99,0],[0.5,1,0],[0.28,0.99,0]];shape=mxgraph.kubernetes.icon;prIcon=pod;fontSize=17;" parent="o5c_36QuPgtL-PP_89I7-1" vertex="1">
          <mxGeometry x="-590" y="-1453" width="50" height="48" as="geometry" />
        </mxCell>
        <mxCell id="GIHWWCE4HEEKvSoa5X5y-107" value="&lt;span style=&quot;background-color: rgb(205 , 162 , 190)&quot;&gt;Node-4&lt;/span&gt;" style="text;html=1;resizable=0;autosize=1;align=center;verticalAlign=middle;points=[];fillColor=none;strokeColor=none;rounded=0;fontSize=17;" parent="o5c_36QuPgtL-PP_89I7-1" vertex="1">
          <mxGeometry x="-620" y="-1324" width="70" height="30" as="geometry" />
        </mxCell>
        <mxCell id="GIHWWCE4HEEKvSoa5X5y-108" value="" style="rounded=0;whiteSpace=wrap;html=1;fontSize=17;fillColor=#dae8fc;strokeColor=#6c8ebf;" parent="o5c_36QuPgtL-PP_89I7-1" vertex="1">
          <mxGeometry x="-470" y="-1576.5" width="160" height="280" as="geometry" />
        </mxCell>
        <mxCell id="GIHWWCE4HEEKvSoa5X5y-109" value="" style="html=1;dashed=0;whitespace=wrap;fillColor=#2875E2;strokeColor=#ffffff;points=[[0.005,0.63,0],[0.1,0.2,0],[0.9,0.2,0],[0.5,0,0],[0.995,0.63,0],[0.72,0.99,0],[0.5,1,0],[0.28,0.99,0]];shape=mxgraph.kubernetes.icon;prIcon=kubelet;fontSize=17;" parent="o5c_36QuPgtL-PP_89I7-1" vertex="1">
          <mxGeometry x="-360" y="-1347" width="50" height="48" as="geometry" />
        </mxCell>
        <mxCell id="GIHWWCE4HEEKvSoa5X5y-110" value="" style="aspect=fixed;html=1;points=[];align=center;image;fontSize=12;image=img/lib/mscae/Docker.svg;fillColor=#7EA6E0;gradientColor=none;" parent="o5c_36QuPgtL-PP_89I7-1" vertex="1">
          <mxGeometry x="-460" y="-1341" width="50" height="41" as="geometry" />
        </mxCell>
        <mxCell id="GIHWWCE4HEEKvSoa5X5y-111" value="" style="html=1;dashed=0;whitespace=wrap;fillColor=#2875E2;strokeColor=#ffffff;points=[[0.005,0.63,0],[0.1,0.2,0],[0.9,0.2,0],[0.5,0,0],[0.995,0.63,0],[0.72,0.99,0],[0.5,1,0],[0.28,0.99,0]];shape=mxgraph.kubernetes.icon;prIcon=pod;fontSize=17;" parent="o5c_36QuPgtL-PP_89I7-1" vertex="1">
          <mxGeometry x="-430" y="-1544.5" width="50" height="48" as="geometry" />
        </mxCell>
        <mxCell id="GIHWWCE4HEEKvSoa5X5y-113" value="&lt;span style=&quot;background-color: rgb(205 , 162 , 190)&quot;&gt;Node-5&lt;/span&gt;" style="text;html=1;resizable=0;autosize=1;align=center;verticalAlign=middle;points=[];fillColor=none;strokeColor=none;rounded=0;fontSize=17;" parent="o5c_36QuPgtL-PP_89I7-1" vertex="1">
          <mxGeometry x="-420" y="-1321.5" width="70" height="30" as="geometry" />
        </mxCell>
        <mxCell id="GIHWWCE4HEEKvSoa5X5y-114" value="&lt;span style=&quot;background-color: rgb(255 , 255 , 255)&quot;&gt;Master-1&lt;/span&gt;" style="text;html=1;resizable=0;autosize=1;align=center;verticalAlign=middle;points=[];fillColor=none;strokeColor=none;rounded=0;fontSize=17;" parent="o5c_36QuPgtL-PP_89I7-1" vertex="1">
          <mxGeometry x="-1215" y="-1709" width="80" height="30" as="geometry" />
        </mxCell>
        <mxCell id="GIHWWCE4HEEKvSoa5X5y-138" style="edgeStyle=orthogonalEdgeStyle;rounded=0;orthogonalLoop=1;jettySize=auto;html=1;entryX=0.5;entryY=0;entryDx=0;entryDy=0;fontSize=17;" parent="o5c_36QuPgtL-PP_89I7-1" source="GIHWWCE4HEEKvSoa5X5y-115" target="GIHWWCE4HEEKvSoa5X5y-92" edge="1">
          <mxGeometry relative="1" as="geometry" />
        </mxCell>
        <mxCell id="GIHWWCE4HEEKvSoa5X5y-115" value="" style="rounded=0;whiteSpace=wrap;html=1;fillColor=#cce5ff;strokeColor=#36393d;fontSize=17;" parent="o5c_36QuPgtL-PP_89I7-1" vertex="1">
          <mxGeometry x="-1020" y="-2059" width="210" height="380" as="geometry" />
        </mxCell>
        <mxCell id="GIHWWCE4HEEKvSoa5X5y-116" value="Kube-Api-Server" style="rounded=0;whiteSpace=wrap;html=1;fillColor=#647687;fontSize=17;strokeColor=#314354;fontColor=#ffffff;" parent="o5c_36QuPgtL-PP_89I7-1" vertex="1">
          <mxGeometry x="-1000" y="-2029" width="170" height="60" as="geometry" />
        </mxCell>
        <mxCell id="GIHWWCE4HEEKvSoa5X5y-117" value="Controller" style="rounded=0;whiteSpace=wrap;html=1;fillColor=#647687;fontSize=17;strokeColor=#314354;fontColor=#ffffff;" parent="o5c_36QuPgtL-PP_89I7-1" vertex="1">
          <mxGeometry x="-1000" y="-1949" width="170" height="60" as="geometry" />
        </mxCell>
        <mxCell id="GIHWWCE4HEEKvSoa5X5y-118" value="Scheduler" style="rounded=0;whiteSpace=wrap;html=1;fillColor=#647687;fontSize=17;strokeColor=#314354;fontColor=#ffffff;" parent="o5c_36QuPgtL-PP_89I7-1" vertex="1">
          <mxGeometry x="-1000" y="-1869" width="170" height="60" as="geometry" />
        </mxCell>
        <mxCell id="GIHWWCE4HEEKvSoa5X5y-119" value="etcd" style="rounded=0;whiteSpace=wrap;html=1;fillColor=#647687;fontSize=17;strokeColor=#314354;fontColor=#ffffff;" parent="o5c_36QuPgtL-PP_89I7-1" vertex="1">
          <mxGeometry x="-1000" y="-1789" width="170" height="60" as="geometry" />
        </mxCell>
        <mxCell id="GIHWWCE4HEEKvSoa5X5y-137" style="edgeStyle=orthogonalEdgeStyle;rounded=0;orthogonalLoop=1;jettySize=auto;html=1;entryX=0.5;entryY=0;entryDx=0;entryDy=0;fontSize=17;" parent="o5c_36QuPgtL-PP_89I7-1" source="GIHWWCE4HEEKvSoa5X5y-120" target="GIHWWCE4HEEKvSoa5X5y-52" edge="1">
          <mxGeometry relative="1" as="geometry">
            <Array as="points">
              <mxPoint x="-915" y="-1629" />
              <mxPoint x="-1005" y="-1629" />
            </Array>
          </mxGeometry>
        </mxCell>
        <mxCell id="GIHWWCE4HEEKvSoa5X5y-120" value="&lt;span style=&quot;background-color: rgb(255 , 255 , 255)&quot;&gt;Master-2&lt;/span&gt;" style="text;html=1;resizable=0;autosize=1;align=center;verticalAlign=middle;points=[];fillColor=none;strokeColor=none;rounded=0;fontSize=17;" parent="o5c_36QuPgtL-PP_89I7-1" vertex="1">
          <mxGeometry x="-955" y="-1709" width="80" height="30" as="geometry" />
        </mxCell>
        <mxCell id="GIHWWCE4HEEKvSoa5X5y-121" value="" style="rounded=0;whiteSpace=wrap;html=1;fillColor=#cce5ff;strokeColor=#36393d;fontSize=17;" parent="o5c_36QuPgtL-PP_89I7-1" vertex="1">
          <mxGeometry x="-760" y="-2059" width="210" height="380" as="geometry" />
        </mxCell>
        <mxCell id="GIHWWCE4HEEKvSoa5X5y-122" value="Kube-Api-Server" style="rounded=0;whiteSpace=wrap;html=1;fillColor=#647687;fontSize=17;strokeColor=#314354;fontColor=#ffffff;" parent="o5c_36QuPgtL-PP_89I7-1" vertex="1">
          <mxGeometry x="-740" y="-2029" width="170" height="60" as="geometry" />
        </mxCell>
        <mxCell id="GIHWWCE4HEEKvSoa5X5y-123" value="Controller" style="rounded=0;whiteSpace=wrap;html=1;fillColor=#647687;fontSize=17;strokeColor=#314354;fontColor=#ffffff;" parent="o5c_36QuPgtL-PP_89I7-1" vertex="1">
          <mxGeometry x="-740" y="-1949" width="170" height="60" as="geometry" />
        </mxCell>
        <mxCell id="GIHWWCE4HEEKvSoa5X5y-124" value="Scheduler" style="rounded=0;whiteSpace=wrap;html=1;fillColor=#647687;fontSize=17;strokeColor=#314354;fontColor=#ffffff;" parent="o5c_36QuPgtL-PP_89I7-1" vertex="1">
          <mxGeometry x="-740" y="-1869" width="170" height="60" as="geometry" />
        </mxCell>
        <mxCell id="GIHWWCE4HEEKvSoa5X5y-125" value="etcd" style="rounded=0;whiteSpace=wrap;html=1;fillColor=#647687;fontSize=17;strokeColor=#314354;fontColor=#ffffff;" parent="o5c_36QuPgtL-PP_89I7-1" vertex="1">
          <mxGeometry x="-740" y="-1789" width="170" height="60" as="geometry" />
        </mxCell>
        <mxCell id="GIHWWCE4HEEKvSoa5X5y-139" style="edgeStyle=orthogonalEdgeStyle;rounded=0;orthogonalLoop=1;jettySize=auto;html=1;entryX=0.5;entryY=0;entryDx=0;entryDy=0;fontSize=17;" parent="o5c_36QuPgtL-PP_89I7-1" source="GIHWWCE4HEEKvSoa5X5y-126" target="GIHWWCE4HEEKvSoa5X5y-100" edge="1">
          <mxGeometry relative="1" as="geometry" />
        </mxCell>
        <mxCell id="GIHWWCE4HEEKvSoa5X5y-126" value="&lt;span style=&quot;background-color: rgb(255 , 255 , 255)&quot;&gt;Master-3&lt;/span&gt;" style="text;html=1;resizable=0;autosize=1;align=center;verticalAlign=middle;points=[];fillColor=none;strokeColor=none;rounded=0;fontSize=17;" parent="o5c_36QuPgtL-PP_89I7-1" vertex="1">
          <mxGeometry x="-695" y="-1709" width="80" height="30" as="geometry" />
        </mxCell>
        <mxCell id="cbo0dfAJEQ5ipfndDBVS-0" value="&lt;font style=&quot;font-size: 18px&quot;&gt;Kubernetes Architecture&lt;/font&gt;" style="rounded=0;whiteSpace=wrap;html=1;" vertex="1" parent="o5c_36QuPgtL-PP_89I7-1">
          <mxGeometry x="-1250" y="-2129" width="600" height="40" as="geometry" />
        </mxCell>
        <mxCell id="-hlMwH2DNdf53dxrSOfE-0" value="" style="rounded=0;whiteSpace=wrap;html=1;fillColor=#EAEDED;fontSize=22;fontColor=#FFFFFF;strokeColor=none;labelBackgroundColor=none;" vertex="1" parent="o5c_36QuPgtL-PP_89I7-1">
          <mxGeometry x="-199" y="-2150" width="539" height="681" as="geometry" />
        </mxCell>
        <mxCell id="-hlMwH2DNdf53dxrSOfE-1" value="1" style="rounded=1;whiteSpace=wrap;html=1;fillColor=#007CBD;strokeColor=none;fontColor=#FFFFFF;fontStyle=1;fontSize=22;labelBackgroundColor=none;" vertex="1" parent="o5c_36QuPgtL-PP_89I7-1">
          <mxGeometry x="-181" y="-2138" width="40" height="38" as="geometry" />
        </mxCell>
        <mxCell id="-hlMwH2DNdf53dxrSOfE-2" value="2" style="rounded=1;whiteSpace=wrap;html=1;fillColor=#007CBD;strokeColor=none;fontColor=#FFFFFF;fontStyle=1;fontSize=22;labelBackgroundColor=none;" vertex="1" parent="o5c_36QuPgtL-PP_89I7-1">
          <mxGeometry x="-181" y="-2053.5" width="40" height="38" as="geometry" />
        </mxCell>
        <mxCell id="-hlMwH2DNdf53dxrSOfE-3" value="3" style="rounded=1;whiteSpace=wrap;html=1;fillColor=#007CBD;strokeColor=none;fontColor=#FFFFFF;fontStyle=1;fontSize=22;labelBackgroundColor=none;" vertex="1" parent="o5c_36QuPgtL-PP_89I7-1">
          <mxGeometry x="-180" y="-1967.5" width="40" height="38" as="geometry" />
        </mxCell>
        <mxCell id="-hlMwH2DNdf53dxrSOfE-4" value="4" style="rounded=1;whiteSpace=wrap;html=1;fillColor=#007CBD;strokeColor=none;fontColor=#FFFFFF;fontStyle=1;fontSize=22;labelBackgroundColor=none;" vertex="1" parent="o5c_36QuPgtL-PP_89I7-1">
          <mxGeometry x="-182.5" y="-1889" width="40" height="38" as="geometry" />
        </mxCell>
        <mxCell id="-hlMwH2DNdf53dxrSOfE-5" value="5" style="rounded=1;whiteSpace=wrap;html=1;fillColor=#007CBD;strokeColor=none;fontColor=#FFFFFF;fontStyle=1;fontSize=22;labelBackgroundColor=none;" vertex="1" parent="o5c_36QuPgtL-PP_89I7-1">
          <mxGeometry x="-181" y="-1772" width="40" height="38" as="geometry" />
        </mxCell>
        <mxCell id="-hlMwH2DNdf53dxrSOfE-6" value="6" style="rounded=1;whiteSpace=wrap;html=1;fillColor=#007CBD;strokeColor=none;fontColor=#FFFFFF;fontStyle=1;fontSize=22;labelBackgroundColor=none;" vertex="1" parent="o5c_36QuPgtL-PP_89I7-1">
          <mxGeometry x="-178" y="-1689" width="40" height="38" as="geometry" />
        </mxCell>
        <mxCell id="-hlMwH2DNdf53dxrSOfE-7" value="7" style="rounded=1;whiteSpace=wrap;html=1;fillColor=#007CBD;strokeColor=none;fontColor=#FFFFFF;fontStyle=1;fontSize=22;labelBackgroundColor=none;" vertex="1" parent="o5c_36QuPgtL-PP_89I7-1">
          <mxGeometry x="-182" y="-1589" width="40" height="38" as="geometry" />
        </mxCell>
        <mxCell id="-hlMwH2DNdf53dxrSOfE-10" value="&lt;span style=&quot;font-size: 17px ; text-align: center&quot;&gt;&lt;font color=&quot;#1a1a1a&quot;&gt;&lt;u&gt;Kube-Api-Server:&lt;/u&gt;&amp;nbsp; This is cluster gateway and act as a gatekeeper for authentication .&amp;nbsp; This is the only one entry point for cluster&amp;nbsp;&lt;/font&gt;&lt;/span&gt;" style="text;html=1;align=left;verticalAlign=top;spacingTop=-4;fontSize=14;labelBackgroundColor=none;whiteSpace=wrap;" vertex="1" parent="o5c_36QuPgtL-PP_89I7-1">
          <mxGeometry x="-117.5" y="-2138" width="449" height="69.5" as="geometry" />
        </mxCell>
        <mxCell id="-hlMwH2DNdf53dxrSOfE-11" value="&lt;span style=&quot;text-align: center&quot;&gt;&lt;font color=&quot;#1a1a1a&quot;&gt;&lt;u style=&quot;font-size: 17px&quot;&gt;Controller Manager:-&lt;/u&gt;&lt;span style=&quot;font-size: 17px&quot;&gt;&amp;nbsp;&lt;/span&gt;&lt;font style=&quot;font-size: 14px&quot;&gt;This will detects cluster state changes. keep on monitor changes of pods in nodes . if any pod went fault state then notify scheduler about change&amp;nbsp;&lt;/font&gt;&lt;/font&gt;&lt;/span&gt;" style="text;html=1;align=left;verticalAlign=top;spacingTop=-4;fontSize=14;labelBackgroundColor=none;whiteSpace=wrap;" vertex="1" parent="o5c_36QuPgtL-PP_89I7-1">
          <mxGeometry x="-120.5" y="-2053.5" width="450" height="64" as="geometry" />
        </mxCell>
        <mxCell id="-hlMwH2DNdf53dxrSOfE-12" value="&lt;u&gt;&lt;font style=&quot;font-size: 17px&quot;&gt;Scheduler:-&lt;/font&gt;&lt;/u&gt;&amp;nbsp;This&amp;nbsp; just decides on which node new pod should be scheduled&amp;nbsp; based resource usage in node." style="text;html=1;align=left;verticalAlign=top;spacingTop=-4;fontSize=14;labelBackgroundColor=none;whiteSpace=wrap;" vertex="1" parent="o5c_36QuPgtL-PP_89I7-1">
          <mxGeometry x="-118.5" y="-1966" width="450" height="117" as="geometry" />
        </mxCell>
        <mxCell id="-hlMwH2DNdf53dxrSOfE-13" value="&lt;font style=&quot;font-size: 17px&quot;&gt;&lt;u&gt;etcd:-&lt;/u&gt;&amp;nbsp;&lt;/font&gt; &amp;nbsp;This is internal storage&amp;nbsp;&lt;br&gt;&lt;ul&gt;&lt;li&gt;cluster changes get stored in the key value store&amp;nbsp;&lt;/li&gt;&lt;li&gt;Manages Secrets and configmap&lt;/li&gt;&lt;li&gt;called it as&amp;nbsp; cluster-brain&lt;/li&gt;&lt;/ul&gt;" style="text;html=1;align=left;verticalAlign=top;spacingTop=-4;fontSize=14;labelBackgroundColor=none;whiteSpace=wrap;" vertex="1" parent="o5c_36QuPgtL-PP_89I7-1">
          <mxGeometry x="-118.5" y="-1893" width="450" height="121" as="geometry" />
        </mxCell>
        <mxCell id="-hlMwH2DNdf53dxrSOfE-14" value="&lt;u&gt;&lt;font style=&quot;font-size: 17px&quot;&gt;Container Runtime:-&lt;/font&gt;&lt;/u&gt; This is one of processor in worker node .&lt;br&gt;&lt;ul&gt;&lt;li&gt;&lt;span&gt;This will be used to run containers in pods&amp;nbsp;&lt;/span&gt;&lt;/li&gt;&lt;/ul&gt;&lt;div&gt;&amp;nbsp;&lt;/div&gt;" style="text;html=1;align=left;verticalAlign=top;spacingTop=-4;fontSize=14;labelBackgroundColor=none;whiteSpace=wrap;" vertex="1" parent="o5c_36QuPgtL-PP_89I7-1">
          <mxGeometry x="-119.5" y="-1772" width="449" height="114" as="geometry" />
        </mxCell>
        <mxCell id="-hlMwH2DNdf53dxrSOfE-15" value="&lt;u&gt;&lt;font style=&quot;font-size: 17px&quot;&gt;Kube-Proxy&lt;/font&gt;&lt;/u&gt;:&amp;nbsp;&amp;nbsp;This is one of processor in worker node&lt;br&gt;&lt;div&gt;&lt;ul&gt;&lt;li&gt;&lt;span&gt;Communicate with other pods in the same&amp;nbsp; node and other nodes&lt;/span&gt;&lt;/li&gt;&lt;li&gt;&lt;span&gt;&lt;div&gt;&lt;span&gt;&amp;nbsp;&lt;/span&gt;Forwards requests services&amp;nbsp;&lt;/div&gt;&lt;/span&gt;&lt;/li&gt;&lt;/ul&gt;&lt;/div&gt;" style="text;html=1;align=left;verticalAlign=top;spacingTop=-4;fontSize=14;labelBackgroundColor=none;whiteSpace=wrap;" vertex="1" parent="o5c_36QuPgtL-PP_89I7-1">
          <mxGeometry x="-119.5" y="-1689" width="450" height="79" as="geometry" />
        </mxCell>
        <mxCell id="-hlMwH2DNdf53dxrSOfE-16" value="&lt;u&gt;&lt;font style=&quot;font-size: 17px&quot;&gt;Kubelet:&lt;/font&gt;&lt;/u&gt;&amp;nbsp; This is one of processor in worker node .&lt;br&gt;&lt;ul&gt;&lt;li&gt;&amp;nbsp;Interacts with both container&amp;nbsp; and node .&amp;nbsp;&lt;/li&gt;&lt;li&gt;&amp;nbsp;Starts the pod with container inside.&lt;/li&gt;&lt;/ul&gt;" style="text;html=1;align=left;verticalAlign=top;spacingTop=-4;fontSize=14;labelBackgroundColor=none;whiteSpace=wrap;" vertex="1" parent="o5c_36QuPgtL-PP_89I7-1">
          <mxGeometry x="-117.5" y="-1589" width="449" height="80" as="geometry" />
        </mxCell>
        <mxCell id="WluOt9AS59_o2pjeqHjT-3" style="edgeStyle=orthogonalEdgeStyle;rounded=0;orthogonalLoop=1;jettySize=auto;html=1;entryX=0;entryY=0.5;entryDx=0;entryDy=0;" edge="1" parent="o5c_36QuPgtL-PP_89I7-1" source="WluOt9AS59_o2pjeqHjT-1" target="EKfXJ3wbXTmqofp4eIew-2">
          <mxGeometry relative="1" as="geometry">
            <mxPoint x="-1500" y="-2009" as="targetPoint" />
            <Array as="points">
              <mxPoint x="-1530" y="-1999" />
              <mxPoint x="-1530" y="-1999" />
            </Array>
          </mxGeometry>
        </mxCell>
        <mxCell id="WluOt9AS59_o2pjeqHjT-4" value="&lt;font style=&quot;font-size: 14px&quot;&gt;Apply Changes \Query&lt;/font&gt;" style="edgeLabel;html=1;align=center;verticalAlign=middle;resizable=0;points=[];" vertex="1" connectable="0" parent="WluOt9AS59_o2pjeqHjT-3">
          <mxGeometry x="-0.2553" y="-1" relative="1" as="geometry">
            <mxPoint as="offset" />
          </mxGeometry>
        </mxCell>
        <mxCell id="WluOt9AS59_o2pjeqHjT-1" value="Client" style="ellipse;whiteSpace=wrap;html=1;" vertex="1" parent="o5c_36QuPgtL-PP_89I7-1">
          <mxGeometry x="-1680" y="-2037" width="170" height="80" as="geometry" />
        </mxCell>
        <mxCell id="8TaAaTo20YIWe6rLmn7o-1" value="1" style="rounded=1;whiteSpace=wrap;html=1;fillColor=#007CBD;strokeColor=none;fontColor=#FFFFFF;fontStyle=1;fontSize=22;labelBackgroundColor=none;" vertex="1" parent="o5c_36QuPgtL-PP_89I7-1">
          <mxGeometry x="-1270" y="-1995.5" width="30" height="26.5" as="geometry" />
        </mxCell>
        <mxCell id="8TaAaTo20YIWe6rLmn7o-2" value="2" style="rounded=1;whiteSpace=wrap;html=1;fillColor=#007CBD;strokeColor=none;fontColor=#FFFFFF;fontStyle=1;fontSize=22;labelBackgroundColor=none;" vertex="1" parent="o5c_36QuPgtL-PP_89I7-1">
          <mxGeometry x="-1270" y="-1932.25" width="30" height="26.5" as="geometry" />
        </mxCell>
        <mxCell id="8TaAaTo20YIWe6rLmn7o-3" value="3" style="rounded=1;whiteSpace=wrap;html=1;fillColor=#007CBD;strokeColor=none;fontColor=#FFFFFF;fontStyle=1;fontSize=22;labelBackgroundColor=none;" vertex="1" parent="o5c_36QuPgtL-PP_89I7-1">
          <mxGeometry x="-1270" y="-1849" width="30" height="26.5" as="geometry" />
        </mxCell>
        <mxCell id="8TaAaTo20YIWe6rLmn7o-4" value="4" style="rounded=1;whiteSpace=wrap;html=1;fillColor=#007CBD;strokeColor=none;fontColor=#FFFFFF;fontStyle=1;fontSize=22;labelBackgroundColor=none;" vertex="1" parent="o5c_36QuPgtL-PP_89I7-1">
          <mxGeometry x="-1270" y="-1776.25" width="30" height="26.5" as="geometry" />
        </mxCell>
        <mxCell id="8TaAaTo20YIWe6rLmn7o-5" value="5" style="rounded=1;whiteSpace=wrap;html=1;fillColor=#007CBD;strokeColor=none;fontColor=#FFFFFF;fontStyle=1;fontSize=22;labelBackgroundColor=none;" vertex="1" parent="o5c_36QuPgtL-PP_89I7-1">
          <mxGeometry x="-1310" y="-1361.75" width="30" height="26.5" as="geometry" />
        </mxCell>
        <mxCell id="8TaAaTo20YIWe6rLmn7o-6" value="7" style="rounded=1;whiteSpace=wrap;html=1;fillColor=#007CBD;strokeColor=none;fontColor=#FFFFFF;fontStyle=1;fontSize=22;labelBackgroundColor=none;arcSize=0;" vertex="1" parent="o5c_36QuPgtL-PP_89I7-1">
          <mxGeometry x="-1140" y="-1341" width="30" height="26.5" as="geometry" />
        </mxCell>
        <mxCell id="8TaAaTo20YIWe6rLmn7o-7" value="" style="html=1;dashed=0;whitespace=wrap;fillColor=#2875E2;strokeColor=#ffffff;points=[[0.005,0.63,0],[0.1,0.2,0],[0.9,0.2,0],[0.5,0,0],[0.995,0.63,0],[0.72,0.99,0],[0.5,1,0],[0.28,0.99,0]];shape=mxgraph.kubernetes.icon;prIcon=k_proxy" vertex="1" parent="o5c_36QuPgtL-PP_89I7-1">
          <mxGeometry x="-1240" y="-1370" width="50" height="48" as="geometry" />
        </mxCell>
        <mxCell id="8TaAaTo20YIWe6rLmn7o-9" value="6" style="rounded=1;whiteSpace=wrap;html=1;fillColor=#007CBD;strokeColor=none;fontColor=#FFFFFF;fontStyle=1;fontSize=22;labelBackgroundColor=none;" vertex="1" parent="o5c_36QuPgtL-PP_89I7-1">
          <mxGeometry x="-1245" y="-1388.25" width="30" height="26.5" as="geometry" />
        </mxCell>
        <mxCell id="XF0OfYObkI7hoC_S6Kn6-0" value="" style="html=1;dashed=0;whitespace=wrap;fillColor=#2875E2;strokeColor=#ffffff;points=[[0.005,0.63,0],[0.1,0.2,0],[0.9,0.2,0],[0.5,0,0],[0.995,0.63,0],[0.72,0.99,0],[0.5,1,0],[0.28,0.99,0]];shape=mxgraph.kubernetes.icon;prIcon=k_proxy" vertex="1" parent="o5c_36QuPgtL-PP_89I7-1">
          <mxGeometry x="-1040" y="-1362.5" width="50" height="48" as="geometry" />
        </mxCell>
        <mxCell id="XF0OfYObkI7hoC_S6Kn6-1" value="" style="html=1;dashed=0;whitespace=wrap;fillColor=#2875E2;strokeColor=#ffffff;points=[[0.005,0.63,0],[0.1,0.2,0],[0.9,0.2,0],[0.5,0,0],[0.995,0.63,0],[0.72,0.99,0],[0.5,1,0],[0.28,0.99,0]];shape=mxgraph.kubernetes.icon;prIcon=k_proxy" vertex="1" parent="o5c_36QuPgtL-PP_89I7-1">
          <mxGeometry x="-810" y="-1369" width="50" height="48" as="geometry" />
        </mxCell>
        <mxCell id="XF0OfYObkI7hoC_S6Kn6-2" value="" style="html=1;dashed=0;whitespace=wrap;fillColor=#2875E2;strokeColor=#ffffff;points=[[0.005,0.63,0],[0.1,0.2,0],[0.9,0.2,0],[0.5,0,0],[0.995,0.63,0],[0.72,0.99,0],[0.5,1,0],[0.28,0.99,0]];shape=mxgraph.kubernetes.icon;prIcon=k_proxy" vertex="1" parent="o5c_36QuPgtL-PP_89I7-1">
          <mxGeometry x="-610" y="-1369" width="50" height="48" as="geometry" />
        </mxCell>
        <mxCell id="XF0OfYObkI7hoC_S6Kn6-3" value="" style="html=1;dashed=0;whitespace=wrap;fillColor=#2875E2;strokeColor=#ffffff;points=[[0.005,0.63,0],[0.1,0.2,0],[0.9,0.2,0],[0.5,0,0],[0.995,0.63,0],[0.72,0.99,0],[0.5,1,0],[0.28,0.99,0]];shape=mxgraph.kubernetes.icon;prIcon=k_proxy" vertex="1" parent="o5c_36QuPgtL-PP_89I7-1">
          <mxGeometry x="-410" y="-1366.5" width="50" height="48" as="geometry" />
        </mxCell>
      </root>
    </mxGraphModel>
  </diagram>
</mxfile>
